<svg width="50" height="50" viewBox="0 0 50 50" fill="none" xmlns="http://www.w3.org/2000/svg">
<rect width="50" height="50" fill="black" fill-opacity="0.05"/>
<path fill-rule="evenodd" clip-rule="evenodd" d="M11.9545 38.0454C13.2391 39.3299 15.1628 39.9309 17.4079 39.9309C22.2116 39.9309 28.4967 37.1835 33.1868 32.4927C36.4312 29.2901 38.7482 25.2691 39.892 20.8561C40.8514 16.9149 40.4208 13.5586 38.7395 11.8774C35.5344 8.66916 24.9725 9.34782 17.5072 16.8131C10.6231 23.6972 7.92452 34.0154 11.9545 38.0454ZM11.4912 30.4635C12.1983 31.0027 12.8794 31.542 13.521 32.08C12.8714 33.363 12.3834 34.7216 12.0681 36.1248C11.3339 34.7237 11.1414 32.7315 11.4912 30.4635ZM14.4786 32.911C13.8221 34.3366 13.3454 35.8383 13.0595 37.3815C14.4681 38.5809 16.8884 38.953 19.7265 38.4797C18.6595 37.1297 17.5184 35.8399 16.3085 34.6163C15.744 34.0518 15.1239 33.4823 14.4786 32.911ZM21.0801 38.1984L21.0798 38.198C21.9148 37.9876 22.7358 37.7252 23.5381 37.4124C22.1343 35.4995 20.5944 33.6902 18.9306 31.9985C16.9416 30.0449 14.7956 28.258 12.5141 26.6556C12.2104 27.4591 11.958 28.2812 11.7584 29.1167C13.6742 30.5284 15.4871 32.0747 17.1833 33.7439C18.5716 35.148 19.8728 36.6354 21.0798 38.198L21.0783 38.1984H21.0801ZM24.7085 36.9213C27.5403 35.6232 30.1164 33.8278 32.3144 31.6203C34.6189 29.327 36.4468 26.6003 37.6925 23.5973C35.5504 22.0828 33.534 20.3979 31.6629 18.5591C30.9275 17.8237 30.1915 17.0223 29.4579 16.1647C28.6705 16.5368 27.9041 16.9518 27.1622 17.4079L27.6915 18.1131L26.7044 18.8534L26.1189 18.0742C25.7518 18.3216 25.3699 18.5912 24.9769 18.8855L25.8289 19.9485L24.8652 20.7197L24.0076 19.6475C23.6226 19.9633 23.2333 20.2984 22.8422 20.6587L23.9342 21.7507L23.0618 22.6231L21.958 21.5193C21.5175 21.966 21.1054 22.4146 20.7241 22.8594L21.4645 23.5997L20.5921 24.4721L19.9381 23.8182C19.5371 24.3315 19.1749 24.83 18.8516 25.3057L19.6136 26.0676L18.7412 26.94L18.1656 26.3644C17.7292 27.0686 17.3287 27.7945 16.9656 28.5392C17.9866 29.3986 18.9355 30.2624 19.7993 31.1261C21.5775 32.9331 23.2184 34.8702 24.7085 36.9213ZM39.0517 18.49C37.6861 17.4275 36.3843 16.2854 35.1531 15.0696C34.7212 14.6377 34.2857 14.1713 33.8501 13.69C35.19 13.2023 36.603 12.9455 38.0288 12.9305C38.9536 14.0263 39.3294 16.0376 39.0517 18.49ZM36.3112 11.8212C35.2472 11.4606 34.1286 11.2878 33.0054 11.3104H33.0085C32.6439 11.3104 32.2639 11.3295 31.8783 11.3585C32.2509 11.828 32.6242 12.284 32.9974 12.7214C34.0492 12.2529 35.1669 11.9493 36.3112 11.8212ZM30.4345 11.5214L30.4349 11.5218C29.5592 11.662 28.6935 11.8589 27.8433 12.1112C29.2601 14.0879 30.8278 15.9519 32.5322 17.6867C34.277 19.4007 36.1524 20.9763 38.1417 22.3991C38.4264 21.5768 38.6564 20.7365 38.8302 19.8838C37.2284 18.6703 35.7074 17.3535 34.277 15.942C32.9042 14.5512 31.6209 13.0749 30.4349 11.5218L30.4376 11.5214H30.4345ZM28.6435 15.1831C27.9595 14.3415 27.2808 13.4519 26.6075 12.5141C23.5195 13.6143 20.7111 15.3798 18.3809 17.6855C16.1232 19.933 14.2978 22.5761 12.9954 25.4833C14.0479 26.2274 15.0443 26.977 15.9846 27.7322C16.3727 26.9544 16.8 26.1969 17.2648 25.4624L16.2708 24.4721L17.1432 23.5997L17.9576 24.4141C18.2865 23.9397 18.6511 23.4455 19.054 22.9371L18.1261 22.008L18.9985 21.1356L19.8474 21.9845C20.2305 21.5422 20.6451 21.0949 21.0857 20.6488L19.9751 19.5383L20.8475 18.6659L21.9679 19.7863C22.3942 19.3914 22.8175 19.0274 23.2352 18.6838L22.3973 17.6349L23.361 16.8637L24.2038 17.9175C24.6073 17.6139 24.9985 17.3375 25.376 17.0815L24.8535 16.3856L25.8406 15.6452L26.4175 16.4109C27.3324 15.8482 28.1092 15.441 28.6435 15.1831Z" fill="black"/>
<path d="M11.9545 38.0454L12.0253 37.9747L11.9545 38.0454ZM33.1868 32.4927L33.1166 32.4215L33.1161 32.422L33.1868 32.4927ZM39.892 20.8561L39.9888 20.8812L39.9892 20.8798L39.892 20.8561ZM38.7395 11.8774L38.6688 11.9481L38.6688 11.9481L38.7395 11.8774ZM13.521 32.08L13.6102 32.1251L13.6461 32.0543L13.5853 32.0033L13.521 32.08ZM11.4912 30.4635L11.5518 30.384L11.418 30.2819L11.3924 30.4483L11.4912 30.4635ZM12.0681 36.1248L11.9795 36.1712L12.1059 36.4125L12.1656 36.1467L12.0681 36.1248ZM13.0595 37.3815L12.9612 37.3633L12.9507 37.4202L12.9947 37.4577L13.0595 37.3815ZM14.4786 32.911L14.5448 32.8361L14.444 32.7469L14.3877 32.8692L14.4786 32.911ZM19.7265 38.4797L19.7429 38.5784L19.9099 38.5505L19.8049 38.4177L19.7265 38.4797ZM16.3085 34.6163L16.3796 34.546L16.3792 34.5456L16.3085 34.6163ZM21.0801 38.1984V38.2984H21.2838L21.1592 38.1372L21.0801 38.1984ZM23.5381 37.4124L23.5744 37.5056L23.6958 37.4583L23.6187 37.3532L23.5381 37.4124ZM18.9306 31.9985L19.0019 31.9284L19.0007 31.9272L18.9306 31.9985ZM12.5141 26.6556L12.5716 26.5738L12.4662 26.4997L12.4206 26.6202L12.5141 26.6556ZM11.7584 29.1167L11.6611 29.0934L11.6457 29.1579L11.699 29.1972L11.7584 29.1167ZM17.1833 33.7439L17.2545 33.6736L17.2535 33.6726L17.1833 33.7439ZM21.0783 38.1984L21.0538 38.1015L21.0783 38.2984V38.1984ZM32.3144 31.6203L32.2439 31.5494L32.2436 31.5498L32.3144 31.6203ZM24.7085 36.9213L24.6276 36.9801L24.6757 37.0463L24.7502 37.0122L24.7085 36.9213ZM37.6925 23.5973L37.7849 23.6356L37.8155 23.5618L37.7503 23.5156L37.6925 23.5973ZM31.6629 18.5591L31.5922 18.6298L31.5928 18.6305L31.6629 18.5591ZM29.4579 16.1647L29.5339 16.0997L29.4842 16.0416L29.4152 16.0743L29.4579 16.1647ZM27.1622 17.4079L27.1098 17.3227L27.0163 17.3801L27.0822 17.4679L27.1622 17.4079ZM27.6915 18.1131L27.7515 18.1931L27.8316 18.133L27.7715 18.053L27.6915 18.1131ZM26.7044 18.8534L26.6244 18.9135L26.6844 18.9934L26.7644 18.9334L26.7044 18.8534ZM26.1189 18.0742L26.1988 18.0141L26.1418 17.9382L26.063 17.9913L26.1189 18.0742ZM24.9769 18.8855L24.9169 18.8055L24.8342 18.8674L24.8988 18.948L24.9769 18.8855ZM25.8289 19.9485L25.8914 20.0266L25.9695 19.9641L25.9069 19.886L25.8289 19.9485ZM24.8652 20.7197L24.7871 20.7822L24.8496 20.8603L24.9277 20.7978L24.8652 20.7197ZM24.0076 19.6475L24.0857 19.585L24.0225 19.5059L23.9442 19.5702L24.0076 19.6475ZM22.8422 20.6587L22.7744 20.5851L22.6978 20.6557L22.7714 20.7294L22.8422 20.6587ZM23.9342 21.7507L24.0049 21.8214L24.0756 21.7507L24.0049 21.68L23.9342 21.7507ZM23.0618 22.6231L22.9911 22.6938L23.0618 22.7645L23.1325 22.6938L23.0618 22.6231ZM21.958 21.5193L22.0288 21.4486L21.9576 21.3774L21.8868 21.4491L21.958 21.5193ZM20.7241 22.8594L20.6482 22.7943L20.5879 22.8646L20.6534 22.9301L20.7241 22.8594ZM21.4645 23.5997L21.5352 23.6705L21.6059 23.5997L21.5352 23.529L21.4645 23.5997ZM20.5921 24.4721L20.5214 24.5429L20.5921 24.6136L20.6628 24.5429L20.5921 24.4721ZM19.9381 23.8182L20.0088 23.7474L19.9289 23.6675L19.8593 23.7566L19.9381 23.8182ZM18.8516 25.3057L18.7689 25.2495L18.7224 25.3179L18.7809 25.3764L18.8516 25.3057ZM19.6136 26.0676L19.6843 26.1383L19.755 26.0676L19.6843 25.9969L19.6136 26.0676ZM18.7412 26.94L18.6705 27.0107L18.7412 27.0814L18.8119 27.0107L18.7412 26.94ZM18.1656 26.3644L18.2363 26.2937L18.147 26.2044L18.0805 26.3117L18.1656 26.3644ZM16.9656 28.5392L16.8757 28.4954L16.8415 28.5655L16.9012 28.6157L16.9656 28.5392ZM19.7993 31.1261L19.8706 31.056L19.87 31.0554L19.7993 31.1261ZM35.1531 15.0696L35.0824 15.1403L35.0828 15.1407L35.1531 15.0696ZM39.0517 18.49L38.9903 18.569L39.131 18.6784L39.1511 18.5013L39.0517 18.49ZM33.8501 13.69L33.8159 13.5961L33.6762 13.6469L33.7759 13.7571L33.8501 13.69ZM38.0288 12.9305L38.1052 12.866L38.0748 12.8301L38.0277 12.8306L38.0288 12.9305ZM33.0054 11.3104L33.0034 11.2104L33.0054 11.4104V11.3104ZM36.3112 11.8212L36.3223 11.9206L36.3433 11.7265L36.3112 11.8212ZM31.8783 11.3585L31.8708 11.2588L31.6827 11.2729L31.7999 11.4207L31.8783 11.3585ZM32.9974 12.7214L32.9214 12.7863L32.9699 12.8431L33.0381 12.8127L32.9974 12.7214ZM30.4345 11.5214V11.4214H30.2321L30.3551 11.5822L30.4345 11.5214ZM27.8433 12.1112L27.8148 12.0153L27.6802 12.0553L27.762 12.1695L27.8433 12.1112ZM32.5322 17.6867L32.4609 17.7568L32.4622 17.7581L32.5322 17.6867ZM38.1417 22.3991L38.0835 22.4805L38.1924 22.5583L38.2362 22.4319L38.1417 22.3991ZM38.8302 19.8838L38.9282 19.9037L38.9408 19.8421L38.8906 19.804L38.8302 19.8838ZM34.277 15.942L34.2058 16.0122L34.2068 16.0131L34.277 15.942ZM30.4376 11.5214L30.4535 11.6201L30.4376 11.4214V11.5214ZM26.6075 12.5141L26.6887 12.4558L26.6448 12.3946L26.5739 12.4199L26.6075 12.5141ZM28.6435 15.1831L28.687 15.2731L28.8009 15.2182L28.7211 15.12L28.6435 15.1831ZM18.3809 17.6855L18.3105 17.6144L18.3103 17.6146L18.3809 17.6855ZM12.9954 25.4833L12.9041 25.4425L12.8705 25.5175L12.9376 25.565L12.9954 25.4833ZM15.9846 27.7322L15.922 27.8102L16.0187 27.8878L16.0741 27.7768L15.9846 27.7322ZM17.2648 25.4624L17.3493 25.5158L17.3921 25.4481L17.3354 25.3915L17.2648 25.4624ZM16.2708 24.4721L16.2001 24.4014L16.1293 24.4723L16.2003 24.543L16.2708 24.4721ZM17.1432 23.5997L17.2139 23.529L17.1432 23.4583L17.0725 23.529L17.1432 23.5997ZM17.9576 24.4141L17.8869 24.4849L17.9716 24.5695L18.0398 24.4711L17.9576 24.4141ZM19.054 22.9371L19.1324 22.9992L19.1877 22.9295L19.1247 22.8665L19.054 22.9371ZM18.1261 22.008L18.0554 21.9373L17.9847 22.0079L18.0553 22.0786L18.1261 22.008ZM18.9985 21.1356L19.0692 21.0649L18.9985 20.9942L18.9277 21.0649L18.9985 21.1356ZM19.8474 21.9845L19.7767 22.0552L19.8527 22.1312L19.923 22.05L19.8474 21.9845ZM21.0857 20.6488L21.1568 20.7191L21.2266 20.6484L21.1564 20.5781L21.0857 20.6488ZM19.9751 19.5383L19.9044 19.4675L19.8337 19.5383L19.9044 19.609L19.9751 19.5383ZM20.8475 18.6659L20.9182 18.5952L20.8475 18.5244L20.7768 18.5952L20.8475 18.6659ZM21.9679 19.7863L21.8972 19.857L21.9653 19.925L22.0359 19.8596L21.9679 19.7863ZM23.2352 18.6838L23.2987 18.761L23.3748 18.6984L23.3133 18.6213L23.2352 18.6838ZM22.3973 17.6349L22.3348 17.5568L22.2568 17.6193L22.3192 17.6973L22.3973 17.6349ZM23.361 16.8637L23.4391 16.8012L23.3766 16.7231L23.2985 16.7856L23.361 16.8637ZM24.2038 17.9175L24.1257 17.9799L24.1863 18.0558L24.2639 17.9974L24.2038 17.9175ZM25.376 17.0815L25.4322 17.1643L25.519 17.1054L25.456 17.0215L25.376 17.0815ZM24.8535 16.3856L24.7935 16.3056L24.7134 16.3656L24.7735 16.4456L24.8535 16.3856ZM25.8406 15.6452L25.9205 15.585L25.8604 15.5053L25.7806 15.5652L25.8406 15.6452ZM26.4175 16.4109L26.3376 16.471L26.3924 16.5437L26.4699 16.496L26.4175 16.4109ZM17.4079 39.8309C15.1788 39.8309 13.2847 39.2341 12.0253 37.9747L11.8838 38.1161C13.1934 39.4257 15.1468 40.0309 17.4079 40.0309V39.8309ZM33.1161 32.422C28.4404 37.0983 22.1796 39.8309 17.4079 39.8309V40.0309C22.2436 40.0309 28.5529 37.2687 33.2576 32.5634L33.1161 32.422ZM39.7952 20.831C38.6559 25.2265 36.3481 29.2316 33.1166 32.4215L33.2571 32.5639C36.5143 29.3486 38.8405 25.3116 39.9888 20.8812L39.7952 20.831ZM38.6688 11.9481C39.489 12.7682 40.0107 14.0041 40.2068 15.532C40.4028 17.0591 40.2724 18.8709 39.7949 20.8324L39.9892 20.8798C40.4711 18.9001 40.605 17.0632 40.4052 15.5065C40.2055 13.9506 39.6713 12.6678 38.8102 11.8067L38.6688 11.9481ZM17.578 16.8838C21.2952 13.1666 25.7829 11.1396 29.7383 10.4412C31.7161 10.0919 33.5582 10.0753 35.1025 10.3438C36.6483 10.6127 37.8872 11.1657 38.6688 11.9481L38.8103 11.8067C37.9893 10.9849 36.706 10.4197 35.1368 10.1468C33.5659 9.8736 31.7001 9.89164 29.7036 10.2442C25.7104 10.9493 21.1846 12.9943 17.4365 16.7424L17.578 16.8838ZM12.0253 37.9747C10.0487 35.9981 9.70633 32.4576 10.7348 28.5248C11.7616 24.5988 14.148 20.3138 17.578 16.8838L17.4365 16.7424C13.9824 20.1966 11.5774 24.5126 10.5414 28.4742C9.50704 32.4291 9.83042 36.0627 11.8838 38.1161L12.0253 37.9747ZM13.5853 32.0033C12.9422 31.4641 12.2598 30.9239 11.5518 30.384L11.4306 30.543C12.1367 31.0816 12.8166 31.6198 13.4568 32.1566L13.5853 32.0033ZM12.1656 36.1467C12.4791 34.7516 12.9644 33.4008 13.6102 32.1251L13.4318 32.0348C12.7785 33.3252 12.2876 34.6917 11.9705 36.1029L12.1656 36.1467ZM11.3924 30.4483C11.0408 32.7275 11.2316 34.7439 11.9795 36.1712L12.1566 36.0784C11.4362 34.7034 11.242 32.7354 11.59 30.4787L11.3924 30.4483ZM13.1579 37.3998C13.4422 35.8647 13.9164 34.3709 14.5694 32.9528L14.3877 32.8692C13.7278 34.3023 13.2486 35.8119 12.9612 37.3633L13.1579 37.3998ZM19.71 38.3811C16.8833 38.8524 14.4996 38.4765 13.1244 37.3054L12.9947 37.4577C14.4365 38.6854 16.8935 39.0535 19.7429 38.5784L19.71 38.3811ZM16.2374 34.6866C17.4447 35.9076 18.5833 37.1946 19.648 38.5418L19.8049 38.4177C18.7356 37.0648 17.5921 35.7722 16.3796 34.546L16.2374 34.6866ZM14.4123 32.9859C15.0568 33.5565 15.6752 34.1245 16.2378 34.687L16.3792 34.5456C15.8127 33.9791 15.191 33.4081 14.5448 32.8361L14.4123 32.9859ZM21.0007 38.2592L21.001 38.2596L21.1592 38.1372L21.1589 38.1369L21.0007 38.2592ZM23.5018 37.3192C22.7034 37.6305 21.8863 37.8916 21.0554 38.1011L21.1042 38.295C21.9433 38.0835 22.7683 37.8199 23.5744 37.5056L23.5018 37.3192ZM18.8593 32.0686C20.5198 33.7569 22.0565 35.5625 23.4575 37.4716L23.6187 37.3532C22.212 35.4364 20.6691 33.6235 19.0019 31.9284L18.8593 32.0686ZM12.4567 26.7374C14.7336 28.3367 16.8754 30.1201 18.8605 32.0699L19.0007 31.9272C17.0078 29.9698 14.8575 28.1793 12.5716 26.5738L12.4567 26.7374ZM11.8556 29.1399C12.0543 28.3085 12.3055 27.4905 12.6077 26.6909L12.4206 26.6202C12.1154 27.4277 11.8617 28.2538 11.6611 29.0934L11.8556 29.1399ZM17.2535 33.6726C15.5538 32.0001 13.7373 30.4507 11.8177 29.0362L11.699 29.1972C13.611 30.6061 15.4203 32.1493 17.1132 33.8152L17.2535 33.6726ZM21.1589 38.1369C19.9494 36.5711 18.6455 35.0806 17.2545 33.6736L17.1122 33.8142C18.4976 35.2154 19.7961 36.6998 21.0007 38.2592L21.1589 38.1369ZM21.1027 38.2954L21.1043 38.295L21.0553 38.1011L21.0538 38.1015L21.1027 38.2954ZM21.0801 38.0984H21.0783V38.2984H21.0801V38.0984ZM32.2436 31.5498C30.054 33.7488 27.4878 35.5373 24.6668 36.8304L24.7502 37.0122C27.5929 35.7091 30.1788 33.9068 32.3853 31.6909L32.2436 31.5498ZM37.6002 23.559C36.3594 26.5498 34.539 29.2654 32.2439 31.5494L32.385 31.6912C34.6988 29.3886 36.5341 26.6508 37.7849 23.6356L37.6002 23.559ZM31.5928 18.6305C33.4678 20.473 35.4883 22.1613 37.6348 23.6789L37.7503 23.5156C35.6126 22.0042 33.6003 20.3229 31.733 18.4878L31.5928 18.6305ZM29.3819 16.2297C30.1169 17.089 30.8547 17.8923 31.5922 18.6298L31.7336 18.4884C31.0003 17.7551 30.266 16.9556 29.5339 16.0997L29.3819 16.2297ZM27.2145 17.4931C27.9534 17.0389 28.7165 16.6257 29.5006 16.2551L29.4152 16.0743C28.6245 16.448 27.8549 16.8647 27.1098 17.3227L27.2145 17.4931ZM27.7715 18.053L27.2421 17.3478L27.0822 17.4679L27.6115 18.1731L27.7715 18.053ZM26.7644 18.9334L27.7515 18.1931L27.6315 18.0331L26.6444 18.7734L26.7644 18.9334ZM26.0389 18.1343L26.6244 18.9135L26.7843 18.7934L26.1988 18.0141L26.0389 18.1343ZM25.0368 18.9656C25.4284 18.6723 25.8089 18.4037 26.1748 18.1571L26.063 17.9913C25.6946 18.2395 25.3114 18.5101 24.9169 18.8055L25.0368 18.9656ZM25.9069 19.886L25.0549 18.823L24.8988 18.948L25.7509 20.0111L25.9069 19.886ZM24.9277 20.7978L25.8914 20.0266L25.7664 19.8705L24.8027 20.6417L24.9277 20.7978ZM23.9295 19.7099L24.7871 20.7822L24.9433 20.6573L24.0857 19.585L23.9295 19.7099ZM22.9099 20.7322C23.2995 20.3734 23.6873 20.0396 24.071 19.7248L23.9442 19.5702C23.5579 19.8871 23.1672 20.2233 22.7744 20.5851L22.9099 20.7322ZM24.0049 21.68L22.9129 20.588L22.7714 20.7294L23.8635 21.8214L24.0049 21.68ZM23.1325 22.6938L24.0049 21.8214L23.8635 21.68L22.9911 22.5524L23.1325 22.6938ZM21.8873 21.59L22.9911 22.6938L23.1325 22.5524L22.0288 21.4486L21.8873 21.59ZM20.8 22.9245C21.1798 22.4814 21.5903 22.0346 22.0292 21.5896L21.8868 21.4491C21.4447 21.8974 21.031 22.3477 20.6482 22.7943L20.8 22.9245ZM21.5352 23.529L20.7948 22.7887L20.6534 22.9301L21.3938 23.6705L21.5352 23.529ZM20.6628 24.5429L21.5352 23.6705L21.3938 23.529L20.5214 24.4014L20.6628 24.5429ZM19.8674 23.8889L20.5214 24.5429L20.6628 24.4014L20.0088 23.7474L19.8674 23.8889ZM18.9343 25.3619C19.2564 24.888 19.6172 24.3913 20.0169 23.8797L19.8593 23.7566C19.4569 24.2716 19.0935 24.7719 18.7689 25.2495L18.9343 25.3619ZM19.6843 25.9969L18.9223 25.235L18.7809 25.3764L19.5429 26.1383L19.6843 25.9969ZM18.8119 27.0107L19.6843 26.1383L19.5429 25.9969L18.6705 26.8693L18.8119 27.0107ZM18.0948 26.4351L18.6705 27.0107L18.8119 26.8693L18.2363 26.2937L18.0948 26.4351ZM17.0554 28.583C17.4171 27.8414 17.816 27.1184 18.2506 26.417L18.0805 26.3117C17.6424 27.0188 17.2403 27.7476 16.8757 28.4954L17.0554 28.583ZM19.87 31.0554C19.0039 30.1894 18.0529 29.3237 17.0299 28.4627L16.9012 28.6157C17.9204 29.4735 18.8671 30.3354 19.7286 31.1968L19.87 31.0554ZM24.7894 36.8625C23.2964 34.8074 21.6522 32.8665 19.8706 31.056L19.728 31.1963C21.5027 32.9997 23.1404 34.933 24.6276 36.9801L24.7894 36.8625ZM35.0828 15.1407C36.3168 16.3593 37.6215 17.504 38.9903 18.569L39.1131 18.4111C37.7506 17.351 36.4517 16.2115 35.2234 14.9984L35.0828 15.1407ZM33.7759 13.7571C34.2121 14.239 34.6489 14.7068 35.0824 15.1403L35.2238 14.9989C34.7935 14.5686 34.3592 14.1035 33.9242 13.6229L33.7759 13.7571ZM38.0277 12.8306C36.5906 12.8456 35.1664 13.1045 33.8159 13.5961L33.8843 13.784C35.2136 13.3002 36.6153 13.0454 38.0298 13.0305L38.0277 12.8306ZM39.1511 18.5013C39.4298 16.0396 39.0569 13.9935 38.1052 12.866L37.9524 12.995C38.8504 14.059 39.2289 16.0355 38.9524 18.4788L39.1511 18.5013ZM33.0075 11.4104C34.1191 11.388 35.2261 11.559 36.2791 11.9159L36.3433 11.7265C35.2683 11.3622 34.1382 11.1875 33.0034 11.2104L33.0075 11.4104ZM33.0085 11.2104H33.0054V11.4104H33.0085V11.2104ZM31.8857 11.4582C32.2699 11.4293 32.6473 11.4104 33.0085 11.4104V11.2104C32.6406 11.2104 32.2578 11.2297 31.8708 11.2588L31.8857 11.4582ZM33.0735 12.6565C32.7011 12.2201 32.3286 11.7651 31.9566 11.2963L31.7999 11.4207C32.1732 11.891 32.5472 12.3478 32.9214 12.7863L33.0735 12.6565ZM36.3 11.7219C35.1456 11.851 34.0179 12.1574 32.9567 12.63L33.0381 12.8127C34.0805 12.3484 35.1882 12.0475 36.3223 11.9206L36.3 11.7219ZM30.5143 11.4611L30.514 11.4606L30.3551 11.5822L30.3555 11.5826L30.5143 11.4611ZM30.4191 11.4231C29.5391 11.5639 28.6692 11.7618 27.8148 12.0153L27.8717 12.2071C28.7178 11.956 29.5793 11.7601 30.4507 11.6206L30.4191 11.4231ZM27.762 12.1695C29.1819 14.1503 30.7529 16.0183 32.4609 17.7568L32.6036 17.6167C30.9028 15.8855 29.3384 14.0254 27.9246 12.053L27.762 12.1695ZM32.4622 17.7581C34.2106 19.4757 36.09 21.0546 38.0835 22.4805L38.1999 22.3178C36.2148 20.8979 34.3433 19.3257 32.6023 17.6154L32.4622 17.7581ZM38.2362 22.4319C38.5224 21.6053 38.7536 20.7608 38.9282 19.9037L38.7322 19.8638C38.5593 20.7122 38.3305 21.5482 38.0472 22.3664L38.2362 22.4319ZM38.8906 19.804C37.2922 18.5932 35.7745 17.2793 34.3473 15.8708L34.2068 16.0131C35.6403 17.4278 37.1645 18.7474 38.7698 19.9635L38.8906 19.804ZM34.3482 15.8717C32.9783 14.484 31.6978 13.0108 30.5144 11.4611L30.3554 11.5825C31.544 13.139 32.8301 14.6185 34.2059 16.0122L34.3482 15.8717ZM30.4218 11.4227L30.419 11.4231L30.4507 11.6206L30.4535 11.6201L30.4218 11.4227ZM30.4345 11.6214H30.4376V11.4214H30.4345V11.6214ZM26.5263 12.5724C27.2007 13.5117 27.8806 14.403 28.5659 15.2462L28.7211 15.12C28.0384 14.2801 27.361 13.392 26.6887 12.4558L26.5263 12.5724ZM18.4512 17.7566C20.771 15.4612 23.5669 13.7036 26.6411 12.6083L26.5739 12.4199C23.4721 13.525 20.6511 15.2984 18.3105 17.6144L18.4512 17.7566ZM13.0866 25.5242C14.384 22.6282 16.2025 19.9952 18.4514 17.7564L18.3103 17.6146C16.044 19.8708 14.2115 22.5241 12.9041 25.4425L13.0866 25.5242ZM16.0472 27.6542C15.1052 26.8977 14.1072 26.1469 13.0531 25.4017L12.9376 25.565C13.9886 26.308 14.9834 27.0564 15.922 27.8102L16.0472 27.6542ZM17.1803 25.4089C16.7137 26.1462 16.2847 26.9068 15.8951 27.6875L16.0741 27.7768C16.4607 27.0021 16.8863 26.2475 17.3493 25.5158L17.1803 25.4089ZM16.2003 24.543L17.1942 25.5332L17.3354 25.3915L16.3414 24.4013L16.2003 24.543ZM17.0725 23.529L16.2001 24.4014L16.3416 24.5429L17.2139 23.6705L17.0725 23.529ZM18.0283 24.3434L17.2139 23.529L17.0725 23.6705L17.8869 24.4849L18.0283 24.3434ZM18.9756 22.875C18.5714 23.3851 18.2055 23.881 17.8754 24.3572L18.0398 24.4711C18.3675 23.9984 18.7308 23.5059 19.1324 22.9992L18.9756 22.875ZM18.0553 22.0786L18.9832 23.0078L19.1247 22.8665L18.1968 21.9373L18.0553 22.0786ZM18.9277 21.0649L18.0554 21.9373L18.1968 22.0787L19.0692 21.2063L18.9277 21.0649ZM19.9181 21.9138L19.0692 21.0649L18.9277 21.2063L19.7767 22.0552L19.9181 21.9138ZM21.0145 20.5785C20.5726 21.026 20.1565 21.4749 19.7718 21.9191L19.923 22.05C20.3046 21.6094 20.7177 21.1637 21.1568 20.7191L21.0145 20.5785ZM19.9044 19.609L21.0149 20.7195L21.1564 20.5781L20.0458 19.4675L19.9044 19.609ZM20.7768 18.5952L19.9044 19.4675L20.0458 19.609L20.9182 18.7366L20.7768 18.5952ZM22.0386 19.7156L20.9182 18.5952L20.7768 18.7366L21.8972 19.857L22.0386 19.7156ZM23.1716 18.6065C22.7528 18.9511 22.328 19.3165 21.9 19.7129L22.0359 19.8596C22.4605 19.4664 22.8822 19.1037 23.2987 18.761L23.1716 18.6065ZM22.3192 17.6973L23.157 18.7462L23.3133 18.6213L22.4755 17.5725L22.3192 17.6973ZM23.2985 16.7856L22.3348 17.5568L22.4598 17.713L23.4235 16.9418L23.2985 16.7856ZM24.2819 17.855L23.4391 16.8012L23.2829 16.9262L24.1257 17.9799L24.2819 17.855ZM25.3199 16.9987C24.9412 17.2555 24.5487 17.5329 24.1437 17.8376L24.2639 17.9974C24.6659 17.695 25.0557 17.4195 25.4322 17.1643L25.3199 16.9987ZM24.7735 16.4456L25.2961 17.1415L25.456 17.0215L24.9334 16.3255L24.7735 16.4456ZM25.7806 15.5652L24.7935 16.3056L24.9135 16.4656L25.9006 15.7252L25.7806 15.5652ZM26.4973 16.3507L25.9205 15.585L25.7607 15.7054L26.3376 16.471L26.4973 16.3507ZM28.6 15.093C28.0629 15.3523 27.2832 15.7611 26.3651 16.3257L26.4699 16.496C27.3817 15.9353 28.1555 15.5297 28.687 15.2731L28.6 15.093Z" fill="black"/>
<path d="M25.0552 33.9807L25.6383 35.0678C25.8049 34.979 29.7325 32.8622 31.9529 30.6417C34.1734 28.4212 36.2902 24.4936 36.379 24.327L35.2919 23.7446C35.2704 23.7835 33.1733 27.6766 31.0805 29.7693C28.9878 31.8621 25.0947 33.9591 25.0552 33.9807Z" fill="black"/>
</svg>
