<svg width="50" height="50" viewBox="0 0 50 50" fill="none" xmlns="http://www.w3.org/2000/svg">
<rect width="50" height="50" fill="black" fill-opacity="0.05"/>
<path fill-rule="evenodd" clip-rule="evenodd" d="M10.5931 28.7719C8.84945 22.2141 11.7352 15.3037 17.6248 11.9335C17.6248 11.9335 22.1687 10 25.5 10C28.8313 10 32.4938 11.9335 32.4938 11.9335C38.3834 15.3037 41.2691 22.2141 39.5255 28.7719C37.7818 35.3298 31.845 39.8943 25.0593 39.8943C18.2736 39.8943 12.3368 35.3298 10.5931 28.7719ZM19.0728 13.9293V13.4094C18.1984 13.8677 17.3792 14.4241 16.6308 15.0679L17.7824 16.2205C18.0172 16.4559 18.1193 16.7926 18.0549 17.1187L17.2066 21.3608L19.9459 22.731L24.0624 19.4378V16.6007L19.6995 14.8564C19.3206 14.7046 19.0724 14.3374 19.0728 13.9293ZM21.0686 13.2537V12.5681C23.6625 11.7221 26.4581 11.7221 29.052 12.5681V13.2537L25.0603 14.8504L21.0686 13.2537ZM27.3785 27.9002L28.8524 24.2249L25.0603 21.1952L21.2682 24.2249L22.7421 27.9002H27.3785ZM15.9942 17.2514L15.1599 21.4207L12.6721 23.9085H12.1382C12.3465 21.1663 13.4259 18.5624 15.2188 16.477L15.9942 17.2514ZM12.1382 25.9044C12.2522 27.4067 12.6291 28.8774 13.2519 30.2493L13.5293 30.0637C13.7503 29.915 14.022 29.8618 14.2827 29.916L18.7444 30.8091L20.895 28.6576L19.2843 24.631L16.2756 23.1272L13.7908 25.612C13.6037 25.7991 13.3499 25.9043 13.0852 25.9044H12.1382ZM19.7893 36.7498C17.5165 35.7328 15.5822 34.0866 14.2149 32.0057L14.2927 31.9538L18.3473 32.7651L19.898 36.641L19.7893 36.7498ZM21.9997 36.5103C22.1229 36.8299 22.0736 37.1905 21.8689 37.4653C23.9621 38.0168 26.1624 38.0168 28.2536 37.4653C28.0497 37.1901 28.0011 36.8296 28.1249 36.5103L29.8763 32.1324L27.6409 29.896H22.4797L20.2483 32.1324L21.9997 36.5103ZM30.2225 36.641L31.7733 32.7651L35.8279 31.9538L35.9057 32.0057C34.5384 34.0866 32.6041 35.7328 30.3313 36.7498L30.2225 36.641ZM37.9824 23.9085C37.774 21.1663 36.6947 18.5624 34.9018 16.477L34.1264 17.2514L34.9607 21.4207L37.4485 23.9085H37.9824ZM36.3298 25.612C36.5169 25.7991 36.7707 25.9043 37.0353 25.9044H37.9824C37.8684 27.4067 37.4914 28.8774 36.8687 30.2493L36.5913 30.0637C36.3713 29.9161 36.1013 29.8629 35.8418 29.916L31.3761 30.8091L29.2256 28.6576L30.8363 24.631L33.842 23.1272L36.3298 25.612ZM32.0657 17.1157C32.0013 16.7896 32.1034 16.4529 32.3381 16.2175L33.4897 15.0649C32.7412 14.4222 31.922 13.8668 31.0478 13.4094V13.9293C31.0481 14.3374 30.7999 14.7046 30.4211 14.8564L26.0582 16.6007V19.4378L30.1746 22.727L32.9139 21.3578L32.0657 17.1157Z" fill="black"/>
<path d="M17.6248 11.9335L17.5465 11.7494L17.5357 11.754L17.5254 11.7599L17.6248 11.9335ZM10.5931 28.7719L10.7864 28.7205L10.5931 28.7719ZM32.4938 11.9335L32.5932 11.7598L32.5872 11.7566L32.4938 11.9335ZM19.0728 13.4094H19.2728V13.0788L18.9799 13.2323L19.0728 13.4094ZM19.0728 13.9293L19.2728 13.9295V13.9293H19.0728ZM16.6308 15.0679L16.5004 14.9163L16.3371 15.0569L16.4894 15.2093L16.6308 15.0679ZM17.7824 16.2205L17.9241 16.0793L17.9239 16.0792L17.7824 16.2205ZM18.0549 17.1187L18.251 17.1579L18.2511 17.1574L18.0549 17.1187ZM17.2066 21.3608L17.0105 21.3216L16.9806 21.4714L17.1172 21.5397L17.2066 21.3608ZM19.9459 22.731L19.8565 22.9098L19.9709 22.9671L20.0709 22.8872L19.9459 22.731ZM24.0624 19.4378L24.1873 19.594L24.2624 19.534V19.4378H24.0624ZM24.0624 16.6007H24.2624V16.4653L24.1366 16.415L24.0624 16.6007ZM19.6995 14.8564L19.6251 15.042L19.6252 15.0421L19.6995 14.8564ZM21.0686 12.5681L21.0066 12.378L20.8686 12.423V12.5681H21.0686ZM21.0686 13.2537H20.8686V13.3891L20.9943 13.4394L21.0686 13.2537ZM29.052 12.5681H29.252V12.423L29.114 12.378L29.052 12.5681ZM29.052 13.2537L29.1262 13.4394L29.252 13.3891V13.2537H29.052ZM25.0603 14.8504L24.986 15.0361L25.0603 15.0658L25.1346 15.0361L25.0603 14.8504ZM28.8524 24.2249L29.038 24.2993L29.0933 24.1614L28.9772 24.0686L28.8524 24.2249ZM27.3785 27.9002V28.1002H27.5137L27.5641 27.9747L27.3785 27.9002ZM25.0603 21.1952L25.1851 21.0389L25.0603 20.9392L24.9354 21.0389L25.0603 21.1952ZM21.2682 24.2249L21.1433 24.0686L21.0272 24.1614L21.0826 24.2993L21.2682 24.2249ZM22.7421 27.9002L22.5565 27.9747L22.6068 28.1002H22.7421V27.9002ZM15.1599 21.4207L15.3013 21.5621L15.3441 21.5193L15.356 21.4599L15.1599 21.4207ZM15.9942 17.2514L16.1903 17.2906L16.2113 17.1856L16.1355 17.1099L15.9942 17.2514ZM12.6721 23.9085V24.1085H12.7549L12.8135 24.0499L12.6721 23.9085ZM12.1382 23.9085L11.9388 23.8934L11.9224 24.1085H12.1382V23.9085ZM15.2188 16.477L15.3601 16.3355L15.2076 16.1832L15.0671 16.3466L15.2188 16.477ZM13.2519 30.2493L13.0698 30.332L13.1672 30.5466L13.3631 30.4155L13.2519 30.2493ZM12.1382 25.9044V25.7044H11.9225L11.9388 25.9195L12.1382 25.9044ZM13.5293 30.0637L13.6405 30.2299L13.641 30.2296L13.5293 30.0637ZM14.2827 29.916L14.242 30.1118L14.2435 30.1121L14.2827 29.916ZM18.7444 30.8091L18.7052 31.0053L18.8102 31.0263L18.8859 30.9505L18.7444 30.8091ZM20.895 28.6576L21.0364 28.799L21.1296 28.7058L21.0807 28.5834L20.895 28.6576ZM19.2843 24.631L19.47 24.5567L19.4418 24.4861L19.3737 24.4521L19.2843 24.631ZM16.2756 23.1272L16.365 22.9483L16.2361 22.8838L16.1342 22.9857L16.2756 23.1272ZM13.7908 25.612L13.6493 25.4706L13.6493 25.4706L13.7908 25.612ZM13.0852 25.9044V26.1044H13.0853L13.0852 25.9044ZM14.2149 32.0057L14.1039 31.8392L13.9386 31.9494L14.0477 32.1155L14.2149 32.0057ZM19.7893 36.7498L19.7076 36.9323L19.8333 36.9886L19.9307 36.8912L19.7893 36.7498ZM14.2927 31.9538L14.332 31.7577L14.2507 31.7414L14.1818 31.7874L14.2927 31.9538ZM18.3473 32.7651L18.533 32.6908L18.4927 32.5902L18.3865 32.569L18.3473 32.7651ZM19.898 36.641L20.0395 36.7824L20.1327 36.6892L20.0837 36.5667L19.898 36.641ZM21.8689 37.4653L21.7085 37.3458L21.5317 37.5833L21.818 37.6587L21.8689 37.4653ZM21.9997 36.5103L22.1863 36.4383L22.1854 36.436L21.9997 36.5103ZM28.2536 37.4653L28.3046 37.6587L28.5901 37.5834L28.4143 37.3462L28.2536 37.4653ZM28.1249 36.5103L27.9392 36.436L27.9384 36.438L28.1249 36.5103ZM29.8763 32.1324L30.0619 32.2067L30.1109 32.0843L30.0177 31.991L29.8763 32.1324ZM27.6409 29.896L27.7824 29.7547L27.7238 29.696H27.6409V29.896ZM22.4797 29.896V29.696H22.3967L22.3381 29.7548L22.4797 29.896ZM20.2483 32.1324L20.1067 31.9911L20.0137 32.0844L20.0626 32.2067L20.2483 32.1324ZM31.7733 32.7651L31.7341 32.569L31.6278 32.5902L31.5876 32.6908L31.7733 32.7651ZM30.2225 36.641L30.0368 36.5667L29.9878 36.6892L30.0811 36.7824L30.2225 36.641ZM35.8279 31.9538L35.9388 31.7874L35.8699 31.7414L35.7886 31.7577L35.8279 31.9538ZM35.9057 32.0057L36.0728 32.1155L36.1819 31.9494L36.0166 31.8392L35.9057 32.0057ZM30.3313 36.7498L30.1899 36.8912L30.2873 36.9886L30.413 36.9323L30.3313 36.7498ZM34.9018 16.477L35.0534 16.3466L34.9129 16.1832L34.7605 16.3355L34.9018 16.477ZM37.9824 23.9085V24.1085H38.1981L38.1818 23.8934L37.9824 23.9085ZM34.1264 17.2514L33.9851 17.1099L33.9093 17.1856L33.9303 17.2906L34.1264 17.2514ZM34.9607 21.4207L34.7645 21.4599L34.7764 21.5193L34.8192 21.5621L34.9607 21.4207ZM37.4485 23.9085L37.3071 24.0499L37.3656 24.1085H37.4485V23.9085ZM37.0353 25.9044L37.0353 26.1044H37.0353V25.9044ZM36.3298 25.612L36.4713 25.4706L36.4711 25.4705L36.3298 25.612ZM37.9824 25.9044L38.1818 25.9195L38.1981 25.7044H37.9824V25.9044ZM36.8687 30.2493L36.7575 30.4155L36.9534 30.5466L37.0508 30.332L36.8687 30.2493ZM36.5913 30.0637L36.4798 30.2298L36.48 30.2299L36.5913 30.0637ZM35.8418 29.916L35.881 30.1121L35.8819 30.1119L35.8418 29.916ZM31.3761 30.8091L31.2347 30.9505L31.3104 31.0263L31.4154 31.0053L31.3761 30.8091ZM29.2256 28.6576L29.0399 28.5834L28.9909 28.7058L29.0842 28.799L29.2256 28.6576ZM30.8363 24.631L30.7468 24.4522L30.6788 24.4862L30.6506 24.5567L30.8363 24.631ZM33.842 23.1272L33.9833 22.9856L33.8814 22.8838L33.7525 22.9483L33.842 23.1272ZM32.3381 16.2175L32.1966 16.0762L32.1965 16.0763L32.3381 16.2175ZM32.0657 17.1157L31.8695 17.1544L31.8696 17.1549L32.0657 17.1157ZM33.4897 15.0649L33.6312 15.2063L33.7837 15.0537L33.62 14.9132L33.4897 15.0649ZM31.0478 13.4094L31.1405 13.2322L30.8478 13.079V13.4094H31.0478ZM31.0478 13.9293H30.8478V13.9295L31.0478 13.9293ZM30.4211 14.8564L30.4954 15.0421L30.4955 15.042L30.4211 14.8564ZM26.0582 16.6007L25.984 16.415L25.8582 16.4653V16.6007H26.0582ZM26.0582 19.4378H25.8582V19.534L25.9334 19.5941L26.0582 19.4378ZM30.1746 22.727L30.0498 22.8832L30.1497 22.963L30.264 22.9059L30.1746 22.727ZM32.9139 21.3578L33.0033 21.5367L33.14 21.4684L33.11 21.3186L32.9139 21.3578ZM17.5254 11.7599C11.5572 15.1751 8.63286 22.1779 10.3998 28.8233L10.7864 28.7205C9.06603 22.2503 11.9132 15.4322 17.7241 12.1071L17.5254 11.7599ZM25.5 9.8C23.8031 9.8 21.8107 10.291 20.2537 10.7758C19.4728 11.0189 18.7968 11.262 18.3159 11.4444C18.0754 11.5356 17.8835 11.6116 17.7516 11.665C17.6856 11.6917 17.6346 11.7127 17.5999 11.7271C17.5826 11.7343 17.5693 11.7398 17.5604 11.7436C17.5559 11.7454 17.5525 11.7469 17.5502 11.7479C17.549 11.7484 17.5481 11.7487 17.5475 11.749C17.5472 11.7491 17.5469 11.7492 17.5468 11.7493C17.5467 11.7493 17.5466 11.7494 17.5466 11.7494C17.5465 11.7494 17.5465 11.7494 17.6248 11.9335C17.7031 12.1175 17.7031 12.1175 17.7031 12.1175C17.7031 12.1175 17.7031 12.1175 17.7032 12.1175C17.7033 12.1174 17.7035 12.1173 17.7037 12.1172C17.7042 12.117 17.705 12.1167 17.706 12.1163C17.7081 12.1154 17.7112 12.1141 17.7154 12.1123C17.7239 12.1087 17.7366 12.1034 17.7533 12.0965C17.7869 12.0825 17.8367 12.062 17.9015 12.0358C18.031 11.9834 18.2202 11.9084 18.4577 11.8184C18.9329 11.6382 19.6011 11.3979 20.3726 11.1577C21.9204 10.6758 23.8656 10.2 25.5 10.2V9.8ZM32.4938 11.9335C32.5872 11.7566 32.5871 11.7566 32.5871 11.7565C32.587 11.7565 32.587 11.7565 32.5869 11.7564C32.5867 11.7564 32.5865 11.7563 32.5862 11.7561C32.5857 11.7558 32.585 11.7554 32.584 11.7549C32.582 11.7539 32.5792 11.7524 32.5755 11.7505C32.5681 11.7467 32.5573 11.741 32.5431 11.7338C32.5147 11.7192 32.4729 11.698 32.4187 11.6712C32.3104 11.6175 32.1525 11.5411 31.9528 11.4496C31.5535 11.2665 30.9865 11.0226 30.3143 10.7787C28.9735 10.2922 27.1996 9.8 25.5 9.8V10.2C27.1316 10.2 28.8546 10.6745 30.1779 11.1547C30.8378 11.3942 31.3946 11.6337 31.7861 11.8132C31.9818 11.9029 32.1361 11.9775 32.2411 12.0296C32.2936 12.0556 32.3338 12.076 32.3607 12.0898C32.3741 12.0966 32.3842 12.1019 32.3909 12.1053C32.3942 12.1071 32.3967 12.1084 32.3983 12.1092C32.3991 12.1096 32.3997 12.1099 32.4 12.1101C32.4002 12.1102 32.4003 12.1103 32.4004 12.1103C32.4004 12.1103 32.4004 12.1103 32.4005 12.1104C32.4004 12.1103 32.4004 12.1103 32.4938 11.9335ZM39.7188 28.8233C41.4857 22.1779 38.5614 15.1751 32.5931 11.7599L32.3945 12.1071C38.2053 15.4322 41.0526 22.2503 39.3322 28.7205L39.7188 28.8233ZM25.0593 40.0943C31.9356 40.0943 37.9518 35.4688 39.7188 28.8233L39.3322 28.7205C37.6118 35.1907 31.7543 39.6943 25.0593 39.6943V40.0943ZM10.3998 28.8233C12.1668 35.4688 18.183 40.0943 25.0593 40.0943V39.6943C18.3643 39.6943 12.5067 35.1907 10.7864 28.7205L10.3998 28.8233ZM18.8728 13.4094V13.9293H19.2728V13.4094H18.8728ZM16.7613 15.2196C17.4981 14.5857 18.3047 14.0378 19.1656 13.5865L18.9799 13.2323C18.0921 13.6976 17.2603 14.2626 16.5004 14.9163L16.7613 15.2196ZM17.9239 16.0792L16.7723 14.9266L16.4894 15.2093L17.641 16.3619L17.9239 16.0792ZM18.2511 17.1574C18.3284 16.766 18.2058 16.3618 17.9241 16.0793L17.6408 16.3618C17.8285 16.5499 17.9102 16.8192 17.8587 17.0799L18.2511 17.1574ZM17.4028 21.4L18.251 17.1579L17.8588 17.0795L17.0105 21.3216L17.4028 21.4ZM20.0354 22.5521L17.2961 21.182L17.1172 21.5397L19.8565 22.9098L20.0354 22.5521ZM23.9374 19.2817L19.821 22.5748L20.0709 22.8872L24.1873 19.594L23.9374 19.2817ZM23.8624 16.6007V19.4378H24.2624V16.6007H23.8624ZM19.6252 15.0421L23.9881 16.7865L24.1366 16.415L19.7737 14.6707L19.6252 15.0421ZM18.8728 13.9292C18.8724 14.419 19.1703 14.8598 19.6251 15.042L19.7739 14.6707C19.471 14.5494 19.2725 14.2558 19.2728 13.9295L18.8728 13.9292ZM20.8686 12.5681V13.2537H21.2686V12.5681H20.8686ZM29.114 12.378C26.4798 11.5189 23.6408 11.5189 21.0066 12.378L21.1306 12.7583C23.6842 11.9254 26.4364 11.9254 28.99 12.7583L29.114 12.378ZM29.252 13.2537V12.5681H28.852V13.2537H29.252ZM25.1346 15.0361L29.1262 13.4394L28.9777 13.068L24.986 14.6647L25.1346 15.0361ZM20.9943 13.4394L24.986 15.0361L25.1346 14.6647L21.1429 13.068L20.9943 13.4394ZM28.6668 24.1504L27.1928 27.8258L27.5641 27.9747L29.038 24.2993L28.6668 24.1504ZM24.9354 21.3514L28.7275 24.3811L28.9772 24.0686L25.1851 21.0389L24.9354 21.3514ZM21.393 24.3811L25.1851 21.3514L24.9354 21.0389L21.1433 24.0686L21.393 24.3811ZM22.9277 27.8258L21.4538 24.1504L21.0826 24.2993L22.5565 27.9747L22.9277 27.8258ZM27.3785 27.7002H22.7421V28.1002H27.3785V27.7002ZM15.356 21.4599L16.1903 17.2906L15.7981 17.2122L14.9638 21.3815L15.356 21.4599ZM12.8135 24.0499L15.3013 21.5621L15.0185 21.2793L12.5307 23.7671L12.8135 24.0499ZM12.1382 24.1085H12.6721V23.7085H12.1382V24.1085ZM15.0671 16.3466C13.2465 18.4644 12.1503 21.1086 11.9388 23.8934L12.3376 23.9237C12.5427 21.224 13.6054 18.6605 15.3704 16.6074L15.0671 16.3466ZM16.1355 17.1099L15.3601 16.3355L15.0775 16.6185L15.8528 17.3929L16.1355 17.1099ZM13.434 30.1666C12.8209 28.816 12.4498 27.3682 12.3376 25.8892L11.9388 25.9195C12.0545 27.4452 12.4373 28.9387 13.0698 30.332L13.434 30.1666ZM13.4181 29.8975L13.1407 30.0831L13.3631 30.4155L13.6405 30.2299L13.4181 29.8975ZM14.3235 29.7202C14.0099 29.655 13.6834 29.719 13.4177 29.8978L13.641 30.2296C13.8173 30.111 14.034 30.0685 14.242 30.1118L14.3235 29.7202ZM18.7837 30.613L14.322 29.7199L14.2435 30.1121L18.7052 31.0053L18.7837 30.613ZM20.7535 28.5162L18.603 30.6678L18.8859 30.9505L21.0364 28.799L20.7535 28.5162ZM19.0986 24.7053L20.7093 28.7319L21.0807 28.5834L19.47 24.5567L19.0986 24.7053ZM16.1862 23.306L19.1949 24.8099L19.3737 24.4521L16.365 22.9483L16.1862 23.306ZM13.9322 25.7534L16.417 23.2686L16.1342 22.9857L13.6493 25.4706L13.9322 25.7534ZM13.0853 26.1044C13.403 26.1043 13.7076 25.978 13.9322 25.7534L13.6493 25.4706C13.4997 25.6202 13.2968 25.7043 13.0852 25.7044L13.0853 26.1044ZM12.1382 26.1044H13.0852V25.7044H12.1382V26.1044ZM14.0477 32.1155C15.436 34.2283 17.3999 35.8997 19.7076 36.9323L19.871 36.5672C17.633 35.5658 15.7284 33.9449 14.382 31.8958L14.0477 32.1155ZM14.1818 31.7874L14.1039 31.8392L14.3258 32.1721L14.4037 32.1202L14.1818 31.7874ZM18.3865 32.569L14.332 31.7577L14.2535 32.1499L18.308 32.9612L18.3865 32.569ZM20.0837 36.5667L18.533 32.6908L18.1616 32.8394L19.7124 36.7153L20.0837 36.5667ZM19.9307 36.8912L20.0395 36.7824L19.7566 36.4996L19.6478 36.6084L19.9307 36.8912ZM22.0293 37.5847C22.275 37.2549 22.3342 36.8221 22.1863 36.4383L21.8131 36.5822C21.9116 36.8378 21.8721 37.1261 21.7085 37.3458L22.0293 37.5847ZM28.2026 37.2719C26.1449 37.8146 23.9797 37.8146 21.9199 37.2719L21.818 37.6587C23.9445 38.219 26.18 38.219 28.3046 37.6587L28.2026 37.2719ZM27.9384 36.438C27.7898 36.8213 27.8481 37.2541 28.093 37.5844L28.4143 37.3462C28.2512 37.1262 28.2124 36.8379 28.3114 36.5826L27.9384 36.438ZM29.6906 32.0581L27.9392 36.436L28.3106 36.5846L30.0619 32.2067L29.6906 32.0581ZM27.4995 30.0374L29.7348 32.2738L30.0177 31.991L27.7824 29.7547L27.4995 30.0374ZM22.4797 30.0961H27.6409V29.696H22.4797V30.0961ZM20.3899 32.2737L22.6212 30.0373L22.3381 29.7548L20.1067 31.9911L20.3899 32.2737ZM22.1854 36.436L20.434 32.0581L20.0626 32.2067L21.814 36.5846L22.1854 36.436ZM31.5876 32.6908L30.0368 36.5667L30.4082 36.7153L31.959 32.8394L31.5876 32.6908ZM35.7886 31.7577L31.7341 32.569L31.8125 32.9612L35.8671 32.1499L35.7886 31.7577ZM36.0166 31.8392L35.9388 31.7874L35.7169 32.1202L35.7948 32.1721L36.0166 31.8392ZM30.413 36.9323C32.7206 35.8997 34.6846 34.2283 36.0728 32.1155L35.7385 31.8958C34.3922 33.9449 32.4876 35.5658 30.2496 36.5672L30.413 36.9323ZM30.0811 36.7824L30.1899 36.8912L30.4727 36.6083L30.364 36.4996L30.0811 36.7824ZM34.7501 16.6074C36.5152 18.6605 37.5778 21.224 37.7829 23.9237L38.1818 23.8934C37.9702 21.1086 36.8741 18.4644 35.0534 16.3466L34.7501 16.6074ZM34.2677 17.3929L35.0431 16.6185L34.7605 16.3355L33.9851 17.1099L34.2677 17.3929ZM35.1568 21.3815L34.3225 17.2122L33.9303 17.2906L34.7645 21.4599L35.1568 21.3815ZM37.5899 23.7671L35.1021 21.2793L34.8192 21.5621L37.3071 24.0499L37.5899 23.7671ZM37.9824 23.7085H37.4485V24.1085H37.9824V23.7085ZM37.0354 25.7044C36.8238 25.7043 36.6209 25.6202 36.4713 25.4706L36.1884 25.7534C36.413 25.978 36.7176 26.1043 37.0353 26.1044L37.0354 25.7044ZM37.9824 25.7044H37.0353V26.1044H37.9824V25.7044ZM37.0508 30.332C37.6832 28.9387 38.066 27.4452 38.1818 25.9195L37.7829 25.8892C37.6707 27.3682 37.2996 28.816 36.6866 30.1666L37.0508 30.332ZM36.48 30.2299L36.7575 30.4155L36.9799 30.0831L36.7025 29.8975L36.48 30.2299ZM35.8819 30.1119C36.089 30.0696 36.3043 30.112 36.4798 30.2298L36.7027 29.8976C36.4383 29.7202 36.1137 29.6562 35.8017 29.7201L35.8819 30.1119ZM31.4154 31.0053L35.881 30.1121L35.8026 29.7199L31.3369 30.613L31.4154 31.0053ZM29.0842 28.799L31.2347 30.9505L31.5176 30.6678L29.3671 28.5162L29.0842 28.799ZM30.6506 24.5567L29.0399 28.5834L29.4113 28.7319L31.0219 24.7053L30.6506 24.5567ZM33.7525 22.9483L30.7468 24.4522L30.9257 24.8099L33.9315 23.306L33.7525 22.9483ZM36.4711 25.4705L33.9833 22.9856L33.7007 23.2687L36.1885 25.7535L36.4711 25.4705ZM32.1965 16.0763C31.9148 16.3588 31.7922 16.763 31.8695 17.1544L32.2619 17.0769C32.2104 16.8162 32.2921 16.5469 32.4797 16.3588L32.1965 16.0763ZM33.3482 14.9236L32.1966 16.0762L32.4796 16.3589L33.6312 15.2063L33.3482 14.9236ZM30.9551 13.5866C31.8158 14.0369 32.6225 14.5838 33.3594 15.2167L33.62 14.9132C32.86 14.2606 32.0282 13.6966 31.1405 13.2322L30.9551 13.5866ZM31.2478 13.9293V13.4094H30.8478V13.9293H31.2478ZM30.4955 15.042C30.9502 14.8598 31.2482 14.419 31.2478 13.9292L30.8478 13.9295C30.8481 14.2558 30.6496 14.5494 30.3467 14.6707L30.4955 15.042ZM26.1325 16.7865L30.4954 15.0421L30.3469 14.6707L25.984 16.415L26.1325 16.7865ZM26.2582 19.4378V16.6007H25.8582V19.4378H26.2582ZM30.2995 22.5707L26.1831 19.2816L25.9334 19.5941L30.0498 22.8832L30.2995 22.5707ZM32.8245 21.1789L30.0852 22.5481L30.264 22.9059L33.0033 21.5367L32.8245 21.1789ZM31.8696 17.1549L32.7178 21.3971L33.11 21.3186L32.2618 17.0765L31.8696 17.1549Z" fill="black" fill-opacity="0.05"/>
</svg>
