<svg width="41" height="36" viewBox="0 0 41 36" fill="none" xmlns="http://www.w3.org/2000/svg">
<path d="M38.711 0.837319C38.331 0.663101 37.9389 0.521296 37.5529 0.363285C36.708 -0.0297171 35.8187 0.136397 34.9395 0.146526H34.9374C34.3937 0.1445 33.852 0.142475 33.3083 0.140449C32.9425 0.0189017 32.5746 0.00269544 32.2027 0.122217C31.7864 -0.0135108 31.37 0.035108 30.9516 0.108036C30.8404 0.0958815 30.7273 0.0776495 30.6161 0.0715721C29.2255 -0.0641555 27.8329 0.0371338 26.4403 0.0249791C23.8147 -0.00135614 21.1912 0.0168759 18.5656 0.0168759C18.5474 0.0999331 18.5313 0.180964 18.5131 0.261996C19.6692 0.626637 20.8253 0.991278 21.9815 1.35592C22.2766 1.49367 22.6889 1.55242 22.2281 2.01227C21.5873 2.65445 20.9891 3.33916 20.3746 4.00767C19.6955 4.75113 19.0184 5.49662 18.3393 6.24211C17.3913 7.25095 16.4454 8.25979 15.4974 9.26863C14.4464 10.1802 13.6137 11.2944 12.6677 12.3053C11.934 12.8462 11.457 13.622 10.8527 14.2804C9.38328 15.8626 7.91184 17.4447 6.44242 19.0289C6.01191 19.3712 5.66224 20.0539 5.02353 19.7723C3.67337 19.1788 2.62638 19.9243 1.49248 20.3841C0.730485 20.692 0.376773 21.1863 0.53847 22.025C1.04175 24.6261 1.00739 27.2536 0.898246 29.881C0.819418 31.8055 1.60567 33.3289 2.96796 34.6092C3.18625 35.0083 3.5238 35.2149 3.95431 35.0386C4.30398 34.8948 4.45962 34.5261 4.45153 34.1696C4.43738 33.6125 4.53238 33.0291 4.22111 32.5125C4.22313 31.7204 4.22314 30.9283 4.22516 30.1362C4.55866 29.3239 4.75269 28.4488 5.28023 27.7215C5.42373 27.5534 5.54299 27.3589 5.71277 27.2252C6.48891 26.6195 6.96389 25.8861 6.92953 24.8449C6.91336 24.2959 7.20038 23.8664 7.67132 23.5099C8.56267 22.8394 9.39541 22.0919 10.2504 21.3767C10.7638 21.1944 11.1054 20.7893 11.4894 20.4368C12.3302 19.7663 13.171 19.0937 14.0139 18.4232C14.7173 17.8661 15.4227 17.309 16.1281 16.7519C16.5545 16.5797 16.8031 16.1907 17.1407 15.9112C17.7329 15.9395 18.3231 15.9659 18.9153 15.9922C20.2473 16.367 21.6197 16.0388 22.9638 16.2171C22.9779 16.5331 22.9921 16.8471 23.0062 17.1631C22.9901 17.5318 22.982 17.9005 22.9577 18.2692C22.9092 19.0593 23.1558 19.8959 22.5899 20.6049C21.7086 20.8136 21.2013 21.316 20.886 22.2195C20.0229 24.697 19.9724 24.6788 22.1695 26.1333C22.41 26.5081 22.8061 26.6823 23.1619 26.9112C23.7197 27.4298 24.2756 27.9504 24.8314 28.469C25.0315 28.6757 25.2316 28.8803 25.4317 29.0849C25.6864 29.5083 26.0199 29.8587 26.418 30.1443C26.7475 30.6164 27.1335 31.0296 27.6469 31.3071C28.0512 31.6596 28.4938 31.9372 29.0395 32.0141C29.6237 32.2998 30.2341 32.4477 30.8869 32.3545C31.0183 32.3768 31.1517 32.4213 31.2811 32.4173C31.7601 32.397 32.3422 32.5955 32.5807 31.9554C32.8334 31.2788 32.2957 30.9972 31.8713 30.6812C30.4827 29.6501 29.3488 28.39 28.4776 26.893C28.419 26.1009 28.2048 25.3189 28.3018 24.5147C28.3766 23.8867 28.1179 23.4208 27.6328 23.0541C27.4125 22.3674 27.1901 21.6786 26.9698 20.9918C26.9334 19.357 27.0871 17.7344 27.2568 16.1097C27.3155 15.5546 27.5337 15.2548 28.0411 15.1191C28.1987 15.0705 28.3564 15.0239 28.514 14.9753C29.3023 14.8659 29.9996 14.5154 30.6889 14.1467C31.4711 13.8388 32.2351 13.4985 32.9081 12.9839C35.0385 11.8454 36.8192 10.2836 38.3351 8.42388C39.3801 7.14156 40.2451 5.74579 40.4594 4.04414C40.6575 2.45795 40.14 1.4957 38.711 0.837319ZM31.8571 7.38263C31.7904 7.4272 31.7237 7.47176 31.659 7.51836C31.6631 7.57913 31.6611 7.6399 31.657 7.70068C31.2548 8.28005 30.7293 8.75206 30.2765 9.28687C30.2159 9.27674 30.1573 9.27066 30.1027 9.26863C30.0825 9.30915 30.0643 9.35169 30.0461 9.39423C30.0421 9.40639 30.04 9.41854 30.038 9.4307C29.7065 9.63125 29.3791 9.8318 29.0497 10.0303C29.0254 10.0405 29.0032 10.0526 28.9789 10.0627C28.4797 10.2896 27.9784 10.5145 27.4792 10.7414C27.4751 10.7373 27.4691 10.7353 27.465 10.7313C27.4569 10.7394 27.4509 10.7495 27.4428 10.7576C27.1639 10.8427 26.8849 10.9278 26.608 11.0128C26.608 11.0128 26.6067 11.0135 26.604 11.0149H26.602C25.8703 11.1749 25.1406 11.337 24.411 11.499C24.3867 11.4767 24.3604 11.4565 24.3362 11.4383C24.3321 11.4504 24.3281 11.4626 24.3241 11.4747C23.8895 11.3856 23.3983 11.7198 23.0062 11.3106C23.0487 11.2762 23.0891 11.2438 23.1315 11.2093C24.2594 10.3018 25.3892 9.39423 26.5151 8.48668C27.4933 7.73714 28.4696 6.9876 29.6378 6.0922C28.9445 5.96661 28.4979 5.88355 28.0512 5.80252C27.7359 5.69718 27.4185 5.59386 27.1032 5.48852C27.1052 5.46016 27.1093 5.4318 27.1154 5.39736C27.8511 5.35684 28.5908 5.40952 29.3245 5.35887C29.4337 5.35279 29.5428 5.34266 29.652 5.33051C29.7995 5.33051 29.945 5.3143 30.0946 5.26163C30.4746 5.3062 30.8526 5.34874 31.2326 5.39128C31.2507 5.39331 31.271 5.39533 31.2892 5.39736C31.4286 5.51688 31.5701 5.63438 31.7096 5.7539C31.7035 5.76403 31.6974 5.77618 31.6894 5.78631C31.6914 5.8167 31.6954 5.84911 31.6954 5.8795C31.748 5.8876 31.8046 5.89165 31.8672 5.8876C32.136 6.38797 31.9359 6.88429 31.8551 7.38263H31.8571Z" fill="url(#paint0_linear_302_75)"/>
<defs>
<linearGradient id="paint0_linear_302_75" x1="39.9096" y1="1.67397" x2="4.89198" y2="36.6125" gradientUnits="userSpaceOnUse">
<stop offset="0.56" stop-color="#3A73BA"/>
<stop offset="1" stop-color="#3953A4"/>
</linearGradient>
</defs>
</svg>
