<svg width="249" height="58" viewBox="0 0 249 58" fill="none" xmlns="http://www.w3.org/2000/svg">
<path d="M114.003 1.38352C113.367 1.09566 112.71 0.861351 112.064 0.600265C110.648 -0.0491024 109.159 0.225373 107.686 0.242109H107.683C106.772 0.238762 105.865 0.235414 104.954 0.232067C104.341 0.0312318 103.725 0.00445376 103.102 0.201942C102.405 -0.0223243 101.707 0.0580098 101.006 0.178511C100.82 0.158428 100.631 0.128302 100.444 0.11826C98.1152 -0.106006 95.7826 0.0613571 93.45 0.0412735C89.0522 -0.00224078 84.6577 0.0278845 80.2599 0.0278845C80.2295 0.165122 80.2024 0.299012 80.1719 0.432902C82.1084 1.03541 84.045 1.63791 85.9815 2.24042C86.4758 2.46803 87.1664 2.5651 86.3945 3.32493C85.3213 4.38601 84.3192 5.51738 83.29 6.62198C82.1525 7.85042 81.0183 9.08221 79.8808 10.314C78.293 11.9809 76.7085 13.6479 75.1207 15.3148C73.3602 16.8211 71.9654 18.6621 70.381 20.3323C69.152 21.2261 68.353 22.5081 67.3408 23.5959C64.8795 26.2101 62.4148 28.8243 59.9536 31.4419C59.2324 32.0076 58.6467 33.1356 57.5769 32.6703C55.3154 31.6896 53.5617 32.9214 51.6624 33.6812C50.3861 34.19 49.7936 35.0067 50.0644 36.3925C50.9074 40.6904 50.8499 45.0317 50.6671 49.3731C50.535 52.553 51.852 55.0702 54.1338 57.1856C54.4995 57.845 55.0649 58.1865 55.786 57.8953C56.3717 57.6576 56.6324 57.0484 56.6188 56.4593C56.5951 55.5388 56.7542 54.5748 56.2329 53.7212C56.2363 52.4124 56.2363 51.1037 56.2396 49.7949C56.7982 48.4526 57.1233 47.0066 58.0069 45.805C58.2473 45.5271 58.447 45.2058 58.7314 44.9849C60.0314 43.9841 60.827 42.7723 60.7695 41.0519C60.7424 40.1448 61.2231 39.4351 62.012 38.846C63.505 37.7381 64.8998 36.5029 66.3319 35.3214C67.1918 35.0201 67.764 34.3506 68.4072 33.7682C69.8156 32.6603 71.224 31.549 72.6357 30.4411C73.8139 29.5206 74.9955 28.6001 76.177 27.6796C76.8913 27.3951 77.3078 26.7524 77.8731 26.2905C78.8651 26.3373 79.8537 26.3808 80.8456 26.4243C83.0767 27.0436 85.3755 26.5013 87.6269 26.7959C87.6505 27.3181 87.6742 27.8369 87.6979 28.3591C87.6709 28.9683 87.6573 29.5775 87.6167 30.1867C87.5354 31.4921 87.9485 32.8745 87.0005 34.046C85.5244 34.3908 84.6747 35.2209 84.1465 36.7138C82.7009 40.8075 82.6163 40.7774 86.2963 43.1807C86.6992 43.8 87.3628 44.0878 87.9586 44.4661C88.893 45.323 89.8241 46.1832 90.7551 47.0401C91.0902 47.3815 91.4254 47.7196 91.7606 48.0577C92.1872 48.7572 92.7458 49.3363 93.4127 49.8083C93.9646 50.5882 94.6112 51.271 95.4711 51.7296C96.1482 52.312 96.8896 52.7706 97.8037 52.8978C98.7822 53.3698 99.8046 53.6141 100.898 53.4601C101.118 53.497 101.342 53.5706 101.558 53.5639C102.361 53.5304 103.336 53.8585 103.735 52.8007C104.158 51.6827 103.258 51.2175 102.547 50.6953C100.221 48.9915 98.3217 46.9096 96.8626 44.4359C96.7644 43.1272 96.4055 41.8351 96.568 40.5063C96.6933 39.4686 96.2599 38.6987 95.4474 38.0929C95.0784 36.9582 94.706 35.8201 94.337 34.6854C94.276 31.9841 94.5333 29.303 94.8177 26.6185C94.9159 25.7013 95.2815 25.2059 96.1313 24.9817C96.3954 24.9013 96.6594 24.8244 96.9235 24.744C98.2439 24.5633 99.4119 23.9842 100.566 23.375C101.877 22.8662 103.156 22.3039 104.284 21.4537C107.852 19.5725 110.835 16.9918 113.374 13.919C115.124 11.8002 116.573 9.49392 116.932 6.68223C117.264 4.06133 116.397 2.47138 114.003 1.38352ZM102.523 12.1985C102.411 12.2721 102.3 12.3458 102.191 12.4228C102.198 12.5232 102.195 12.6236 102.188 12.724C101.514 13.6813 100.634 14.4613 99.8757 15.3449C99.7741 15.3282 99.6759 15.3182 99.5845 15.3148C99.5507 15.3817 99.5202 15.452 99.4897 15.5223C99.483 15.5424 99.4796 15.5625 99.4762 15.5826C98.921 15.914 98.3725 16.2453 97.8207 16.5734C97.78 16.5901 97.7428 16.6102 97.7022 16.6269C96.8659 17.0018 96.0263 17.3734 95.1901 17.7483C95.1833 17.7416 95.1732 17.7382 95.1664 17.7315C95.1529 17.7449 95.1427 17.7616 95.1292 17.775C94.662 17.9156 94.1948 18.0562 93.731 18.1968C93.731 18.1968 93.7287 18.1979 93.7242 18.2001H93.7208C92.4952 18.4646 91.2731 18.7324 90.0509 19.0001C90.0103 18.9633 89.9662 18.9298 89.9256 18.8997C89.9188 18.9198 89.9121 18.9399 89.9053 18.96C89.1774 18.8127 88.3547 19.365 87.6979 18.6888C87.769 18.6319 87.8368 18.5784 87.9078 18.5215C89.797 17.0219 91.6895 15.5223 93.5752 14.0228C95.2138 12.7843 96.849 11.5458 98.8059 10.0663C97.6446 9.85878 96.8964 9.72154 96.1482 9.58765C95.6201 9.41359 95.0885 9.24288 94.5604 9.06882C94.5638 9.02196 94.5706 8.9751 94.5807 8.9182C95.813 8.85125 97.0522 8.93828 98.2811 8.8546C98.4639 8.84456 98.6467 8.82782 98.8296 8.80774C99.0767 8.80774 99.3205 8.78096 99.571 8.69393C100.207 8.76757 100.841 8.83786 101.477 8.90816C101.508 8.9115 101.541 8.91485 101.572 8.9182C101.805 9.11568 102.042 9.30983 102.276 9.50731C102.266 9.52405 102.256 9.54413 102.242 9.56087C102.246 9.61108 102.252 9.66463 102.252 9.71484C102.34 9.72823 102.435 9.73493 102.54 9.72823C102.99 10.555 102.655 11.3751 102.52 12.1985H102.523Z" fill="#0077E5"/>
<path d="M120.824 48.384C117.624 48.384 115.08 47.52 113.192 45.792C111.336 44.032 110.408 41.68 110.408 38.736C110.408 38.416 110.44 37.872 110.504 37.104L113.24 14.976C113.272 14.816 113.336 14.688 113.432 14.592C113.56 14.464 113.704 14.4 113.864 14.4H118.136C118.488 14.4 118.664 14.592 118.664 14.976L115.928 37.2C115.896 37.424 115.88 37.76 115.88 38.208C115.88 39.84 116.376 41.152 117.368 42.144C118.36 43.104 119.704 43.584 121.4 43.584C123.288 43.584 124.872 42.992 126.152 41.808C127.464 40.624 128.248 39.088 128.504 37.2L131.192 14.976C131.224 14.816 131.304 14.688 131.432 14.592C131.56 14.464 131.704 14.4 131.864 14.4H136.136C136.296 14.4 136.424 14.464 136.52 14.592C136.616 14.688 136.648 14.816 136.616 14.976L133.88 37.104C133.624 39.344 132.904 41.328 131.72 43.056C130.536 44.752 129 46.064 127.112 46.992C125.256 47.92 123.16 48.384 120.824 48.384ZM151.985 48.384C148.593 48.384 145.921 47.632 143.969 46.128C142.049 44.624 141.089 42.592 141.089 40.032C141.089 39.744 141.121 39.312 141.185 38.736L141.329 37.536C141.361 37.376 141.425 37.248 141.521 37.152C141.649 37.024 141.793 36.96 141.953 36.96H146.129C146.289 36.96 146.417 37.024 146.513 37.152C146.609 37.248 146.641 37.376 146.609 37.536L146.465 38.448L146.417 38.976C146.417 40.32 146.993 41.424 148.145 42.288C149.329 43.152 150.945 43.584 152.993 43.584C155.009 43.584 156.561 43.104 157.649 42.144C158.737 41.184 159.281 39.984 159.281 38.544C159.281 37.456 158.785 36.56 157.793 35.856C156.801 35.152 155.041 34.272 152.513 33.216C150.593 32.448 149.025 31.728 147.809 31.056C146.593 30.384 145.569 29.504 144.737 28.416C143.937 27.328 143.537 25.984 143.537 24.384C143.537 22.272 144.049 20.432 145.073 18.864C146.129 17.296 147.569 16.096 149.393 15.264C151.249 14.432 153.345 14.016 155.681 14.016C158.945 14.016 161.537 14.8 163.457 16.368C165.409 17.936 166.385 20.032 166.385 22.656C166.385 22.912 166.353 23.328 166.289 23.904L166.193 24.72C166.161 24.88 166.081 25.024 165.953 25.152C165.857 25.248 165.729 25.296 165.569 25.296H161.345C161.185 25.296 161.057 25.248 160.961 25.152C160.865 25.024 160.833 24.88 160.865 24.72L160.961 24.192L161.009 23.616C161.009 22.24 160.465 21.104 159.377 20.208C158.321 19.28 156.817 18.816 154.865 18.816C153.009 18.816 151.537 19.232 150.449 20.064C149.393 20.896 148.865 22.08 148.865 23.616C148.865 24.416 149.105 25.104 149.585 25.68C150.065 26.224 150.753 26.72 151.649 27.168C152.545 27.616 153.921 28.208 155.777 28.944C157.729 29.744 159.297 30.464 160.481 31.104C161.665 31.744 162.673 32.608 163.505 33.696C164.337 34.784 164.753 36.144 164.753 37.776C164.753 38 164.721 38.4 164.657 38.976C164.305 41.856 162.993 44.144 160.721 45.84C158.481 47.536 155.569 48.384 151.985 48.384ZM193.181 14.976C193.213 14.816 193.293 14.688 193.421 14.592C193.549 14.464 193.693 14.4 193.853 14.4H198.125C198.285 14.4 198.413 14.464 198.509 14.592C198.605 14.688 198.637 14.816 198.605 14.976L194.621 47.424C194.589 47.584 194.509 47.728 194.381 47.856C194.285 47.952 194.157 48 193.997 48H189.725C189.373 48 189.197 47.808 189.197 47.424L190.925 33.696C190.925 33.536 190.845 33.456 190.685 33.456H178.829C178.669 33.456 178.589 33.536 178.589 33.696L176.861 47.424C176.861 47.584 176.797 47.728 176.669 47.856C176.541 47.952 176.397 48 176.237 48H171.965C171.805 48 171.677 47.952 171.581 47.856C171.485 47.728 171.453 47.584 171.485 47.424L175.469 14.976C175.501 14.816 175.565 14.688 175.661 14.592C175.789 14.464 175.933 14.4 176.093 14.4H180.365C180.525 14.4 180.653 14.464 180.749 14.592C180.845 14.688 180.877 14.816 180.845 14.976L179.213 28.416C179.213 28.576 179.277 28.656 179.405 28.656H191.309C191.469 28.656 191.549 28.576 191.549 28.416L193.181 14.976Z" fill="#0077E5"/>
</svg>
