<svg width="50" height="50" viewBox="0 0 50 50" fill="none" xmlns="http://www.w3.org/2000/svg">
<rect width="50" height="50" fill="black" fill-opacity="0.05"/>
<path fill-rule="evenodd" clip-rule="evenodd" d="M37.3917 12.1681L40.8225 18.2749C41.0403 18.6626 40.9524 19.1503 40.6129 19.4374L36.1963 23.1738C35.8123 23.4986 35.2393 23.4584 34.9046 23.0828L34.0769 22.154V39.0133C34.0769 39.5256 33.6616 39.9409 33.1493 39.9409H16.7921C16.2798 39.9409 15.8645 39.5256 15.8645 39.0133V22.154L15.0369 23.0828C14.7022 23.4583 14.1292 23.4986 13.7452 23.1738L9.32856 19.4374C8.98908 19.1502 8.90114 18.6625 9.11894 18.2749L12.5498 12.1681C12.6581 11.9753 12.8316 11.8276 13.0392 11.7515L17.6478 10.0616C17.7501 10.0241 17.8582 10.0049 17.9671 10.0049H31.696H31.9743C32.0832 10.0049 32.1914 10.0241 32.2937 10.0616L36.9022 11.7515C37.1098 11.8276 37.2834 11.9753 37.3917 12.1681ZM17.7198 37.2501L36.0226 13.5189L35.942 13.3754L34.2647 12.7603L17.7198 34.2123V37.2501ZM27.8378 11.8601C27.5726 13.1237 26.4472 14.0771 25.1083 14.0771C23.764 14.0771 22.6425 13.1344 22.3789 11.8601H27.8378ZM11.1116 18.5158L14.2532 21.1736L16.0996 19.1016C16.3557 18.8142 16.7627 18.7149 17.1223 18.8518C17.482 18.9889 17.7198 19.3338 17.7198 19.7187V31.1744L32.4382 12.0907L31.8096 11.8602H29.7157C29.432 14.1502 27.4702 15.9325 25.1082 15.9325C22.7378 15.9325 20.7833 14.1723 20.5005 11.8602H18.1318L13.9995 13.3754L11.1116 18.5158ZM19.4183 38.0856L32.2217 21.4849V38.0856H19.4183V38.0856ZM33.9587 19.2327L35.6882 21.1736L38.8298 18.5158L37.01 15.2765L33.9587 19.2327Z" fill="black"/>
<path d="M40.8225 18.2749L40.9969 18.1769L40.9969 18.1769L40.8225 18.2749ZM37.3917 12.1681L37.2173 12.266L37.2173 12.266L37.3917 12.1681ZM40.6129 19.4374L40.4837 19.2847L40.4837 19.2847L40.6129 19.4374ZM36.1963 23.1738L36.3254 23.3265L36.3254 23.3265L36.1963 23.1738ZM34.9046 23.0828L35.0539 22.9497L35.0539 22.9497L34.9046 23.0828ZM34.0769 22.154L34.2263 22.0209L33.8769 21.629V22.154H34.0769ZM15.8645 22.154H16.0645V21.629L15.7152 22.0209L15.8645 22.154ZM15.0369 23.0828L15.1862 23.2158L15.1862 23.2158L15.0369 23.0828ZM13.7452 23.1738L13.616 23.3265L13.616 23.3265L13.7452 23.1738ZM9.32856 19.4374L9.19938 19.5901L9.19939 19.5901L9.32856 19.4374ZM9.11894 18.2749L9.2933 18.3729L9.2933 18.3729L9.11894 18.2749ZM12.5498 12.1681L12.3754 12.0701L12.3754 12.0701L12.5498 12.1681ZM13.0392 11.7515L13.108 11.9393L13.1081 11.9393L13.0392 11.7515ZM17.6478 10.0616L17.579 9.87379L17.5789 9.8738L17.6478 10.0616ZM32.2937 10.0616L32.3625 9.8738L32.3625 9.87379L32.2937 10.0616ZM36.9022 11.7515L36.8334 11.9393L36.8334 11.9393L36.9022 11.7515ZM36.0226 13.5189L36.1809 13.641L36.2617 13.5363L36.197 13.421L36.0226 13.5189ZM17.7198 37.2501H17.5198V37.8369L17.8781 37.3722L17.7198 37.2501ZM35.942 13.3754L36.1164 13.2774L36.0802 13.213L36.0108 13.1876L35.942 13.3754ZM34.2647 12.7603L34.3335 12.5726L34.1959 12.5221L34.1063 12.6382L34.2647 12.7603ZM17.7198 34.2123L17.5614 34.0901L17.5198 34.1441V34.2123H17.7198ZM27.8378 11.8601L28.0335 11.9012L28.0842 11.6601H27.8378V11.8601ZM22.3789 11.8601V11.6601H22.1333L22.183 11.9007L22.3789 11.8601ZM14.2532 21.1736L14.124 21.3262L14.2728 21.4521L14.4025 21.3066L14.2532 21.1736ZM11.1116 18.5158L10.9372 18.4178L10.8563 18.5618L10.9824 18.6685L11.1116 18.5158ZM16.0996 19.1016L16.2489 19.2346L16.2489 19.2346L16.0996 19.1016ZM17.1223 18.8518L17.1935 18.6649L17.1935 18.6649L17.1223 18.8518ZM17.7198 31.1744H17.5198V31.7612L17.8781 31.2965L17.7198 31.1744ZM32.4382 12.0907L32.5965 12.2128L32.7631 11.9968L32.507 11.9029L32.4382 12.0907ZM31.8096 11.8602L31.8784 11.6724L31.8451 11.6602H31.8096V11.8602ZM29.7157 11.8602V11.6602H29.539L29.5172 11.8356L29.7157 11.8602ZM20.5005 11.8602L20.6991 11.8359L20.6776 11.6602H20.5005V11.8602ZM18.1318 11.8602V11.6602H18.0963L18.0629 11.6724L18.1318 11.8602ZM13.9995 13.3754L13.9306 13.1876L13.8613 13.2131L13.8251 13.2775L13.9995 13.3754ZM32.2217 21.4849H32.4217V20.8981L32.0633 21.3628L32.2217 21.4849ZM19.4183 38.0856L19.2599 37.9634L19.2183 38.0174V38.0856H19.4183ZM32.2217 38.0856V38.2856H32.4217V38.0856H32.2217ZM19.4183 38.0856H19.2183V38.2856H19.4183V38.0856ZM35.6882 21.1736L35.5389 21.3066L35.6686 21.4521L35.8174 21.3262L35.6882 21.1736ZM33.9587 19.2327L33.8003 19.1106L33.699 19.2419L33.8094 19.3658L33.9587 19.2327ZM38.8298 18.5158L38.959 18.6685L39.085 18.5618L39.0042 18.4178L38.8298 18.5158ZM37.01 15.2765L37.1843 15.1785L37.0362 14.9149L36.8516 15.1543L37.01 15.2765ZM40.9969 18.1769L37.566 12.0701L37.2173 12.266L40.6481 18.3729L40.9969 18.1769ZM40.742 19.5901C41.1547 19.241 41.2616 18.6482 40.9969 18.1769L40.6481 18.3729C40.819 18.677 40.75 19.0595 40.4837 19.2847L40.742 19.5901ZM36.3254 23.3265L40.7421 19.5901L40.4837 19.2847L36.0671 23.0211L36.3254 23.3265ZM34.7553 23.2158C35.1621 23.6725 35.8587 23.7213 36.3254 23.3265L36.0671 23.0211C35.7659 23.2759 35.3164 23.2443 35.0539 22.9497L34.7553 23.2158ZM33.9276 22.2871L34.7553 23.2158L35.0539 22.9497L34.2263 22.0209L33.9276 22.2871ZM34.2769 39.0133V22.154H33.8769V39.0133H34.2769ZM33.1493 40.1409C33.7721 40.1409 34.2769 39.636 34.2769 39.0133H33.8769C33.8769 39.4151 33.5512 39.7409 33.1493 39.7409V40.1409ZM16.7921 40.1409H33.1493V39.7409H16.7921V40.1409ZM15.6645 39.0133C15.6645 39.636 16.1694 40.1409 16.7921 40.1409V39.7409C16.3903 39.7409 16.0645 39.4151 16.0645 39.0133H15.6645ZM15.6645 22.154V39.0133H16.0645V22.154H15.6645ZM15.1862 23.2158L16.0138 22.2871L15.7152 22.0209L14.8875 22.9497L15.1862 23.2158ZM13.616 23.3265C14.0829 23.7213 14.7793 23.6723 15.1862 23.2158L14.8875 22.9497C14.625 23.2442 14.1756 23.2759 13.8743 23.0211L13.616 23.3265ZM9.19939 19.5901L13.616 23.3265L13.8743 23.0211L9.45773 19.2847L9.19939 19.5901ZM8.94457 18.1769C8.67981 18.6482 8.78673 19.241 9.19938 19.5901L9.45774 19.2847C9.19143 19.0594 9.12247 18.6769 9.2933 18.3729L8.94457 18.1769ZM12.3754 12.0701L8.94457 18.1769L9.2933 18.3729L12.7242 12.266L12.3754 12.0701ZM12.9704 11.5637C12.718 11.6562 12.5071 11.8358 12.3754 12.0701L12.7241 12.266C12.8091 12.1148 12.9452 11.999 13.108 11.9393L12.9704 11.5637ZM17.5789 9.8738L12.9704 11.5637L13.1081 11.9393L17.7166 10.2494L17.5789 9.8738ZM17.9671 9.80488C17.8347 9.80488 17.7033 9.82824 17.579 9.87379L17.7166 10.2494C17.7969 10.2199 17.8817 10.2049 17.9671 10.2049V9.80488ZM31.696 9.80488H17.9671V10.2049H31.696V9.80488ZM31.9743 9.80488H31.696V10.2049H31.9743V9.80488ZM32.3625 9.87379C32.2382 9.82824 32.1067 9.80488 31.9743 9.80488V10.2049C32.0597 10.2049 32.1446 10.2199 32.2248 10.2494L32.3625 9.87379ZM36.9711 11.5637L32.3625 9.8738L32.2248 10.2494L36.8334 11.9393L36.9711 11.5637ZM37.566 12.0701C37.4344 11.8357 37.2234 11.6562 36.9711 11.5637L36.8334 11.9393C36.9962 11.999 37.1324 12.1148 37.2173 12.266L37.566 12.0701ZM35.8642 13.3967L17.5614 37.1279L17.8781 37.3722L36.1809 13.641L35.8642 13.3967ZM35.7676 13.4733L35.8482 13.6168L36.197 13.421L36.1164 13.2774L35.7676 13.4733ZM34.1958 12.9481L35.8731 13.5631L36.0108 13.1876L34.3335 12.5726L34.1958 12.9481ZM17.8781 34.3344L34.423 12.8825L34.1063 12.6382L17.5614 34.0901L17.8781 34.3344ZM17.9198 37.2501V34.2123H17.5198V37.2501H17.9198ZM25.1083 14.2771C26.544 14.2771 27.7493 13.2552 28.0335 11.9012L27.6421 11.8191C27.3958 12.9921 26.3504 13.8771 25.1083 13.8771V14.2771ZM22.183 11.9007C22.4656 13.2665 23.6679 14.2771 25.1083 14.2771V13.8771C23.8602 13.8771 22.8194 13.0022 22.5747 11.8196L22.183 11.9007ZM27.8378 11.6601H22.3789V12.0601H27.8378V11.6601ZM14.3824 21.0209L11.2408 18.3631L10.9824 18.6685L14.124 21.3262L14.3824 21.0209ZM15.9503 18.9685L14.1039 21.0405L14.4025 21.3066L16.2489 19.2346L15.9503 18.9685ZM17.1935 18.6649C16.7564 18.4985 16.2616 18.6191 15.9503 18.9685L16.2489 19.2346C16.4497 19.0092 16.769 18.9313 17.0512 19.0387L17.1935 18.6649ZM17.9198 19.7187C17.9198 19.2508 17.6307 18.8315 17.1935 18.6649L17.0511 19.0387C17.3333 19.1462 17.5198 19.4168 17.5198 19.7187H17.9198ZM17.9198 31.1744V19.7187H17.5198V31.1744H17.9198ZM32.2798 11.9685L17.5614 31.0523L17.8781 31.2965L32.5965 12.2128L32.2798 11.9685ZM31.7408 12.048L32.3693 12.2784L32.507 11.9029L31.8784 11.6724L31.7408 12.048ZM29.7157 12.0602H31.8096V11.6602H29.7157V12.0602ZM25.1082 16.1325C27.5726 16.1325 29.6182 14.2735 29.9142 11.8848L29.5172 11.8356C29.2457 14.0269 27.3678 15.7325 25.1082 15.7325V16.1325ZM20.302 11.8845C20.597 14.2961 22.636 16.1325 25.1082 16.1325V15.7325C22.8396 15.7325 20.9697 14.0484 20.6991 11.8359L20.302 11.8845ZM18.1318 12.0602H20.5005V11.6602H18.1318V12.0602ZM14.0683 13.5632L18.2006 12.048L18.0629 11.6724L13.9306 13.1876L14.0683 13.5632ZM11.286 18.6137L14.1738 13.4734L13.8251 13.2775L10.9372 18.4178L11.286 18.6137ZM32.0633 21.3628L19.2599 37.9634L19.5767 38.2077L32.38 21.607L32.0633 21.3628ZM32.4217 38.0856V21.4849H32.0217V38.0856H32.4217ZM19.4183 38.2856H32.2217V37.8856H19.4183V38.2856ZM19.2183 38.0856V38.0856H19.6183V38.0856H19.2183ZM35.8375 21.0405L34.108 19.0997L33.8094 19.3658L35.5389 21.3066L35.8375 21.0405ZM38.7006 18.3631L35.559 21.0209L35.8174 21.3262L38.959 18.6685L38.7006 18.3631ZM36.8356 15.3744L38.6554 18.6137L39.0042 18.4178L37.1843 15.1785L36.8356 15.3744ZM34.1171 19.3549L37.1683 15.3986L36.8516 15.1543L33.8003 19.1106L34.1171 19.3549Z" fill="black" fill-opacity="0.05"/>
</svg>
