<svg width="40" height="40" viewBox="0 0 40 40" fill="none" xmlns="http://www.w3.org/2000/svg">
<rect width="40" height="40" fill="black"/>
<path fill-rule="evenodd" clip-rule="evenodd" d="M17.6553 9.10109C18.9116 7.63297 21.1819 7.63297 22.4372 9.10109L22.972 9.7198C23.2279 10.0239 23.6306 10.1497 24.0133 10.0659L24.8145 9.86661C26.6926 9.41569 28.5299 10.758 28.6819 12.677L28.748 13.5055C28.7784 13.8935 29.0269 14.2395 29.3908 14.3863L30.1522 14.7009C31.9359 15.4455 32.6375 17.6057 31.6287 19.2521L31.1998 19.9547C30.9932 20.2903 30.9932 20.7097 31.1998 21.0453L31.6287 21.7479C32.6375 23.3943 31.9359 25.5545 30.1522 26.2991L29.3908 26.6137C29.0269 26.7605 28.7784 27.1065 28.748 27.4945L28.6819 28.323C28.5299 30.242 26.6926 31.5843 24.8145 31.1334L24.0133 30.9341C23.6306 30.8503 23.2279 30.9761 22.972 31.2802L22.4372 31.8989C21.1819 33.367 18.9116 33.367 17.6553 31.8989L17.1205 31.2802C16.8646 30.9761 16.463 30.8503 16.0792 30.9341L15.278 31.1334C13.3998 31.5843 11.5636 30.242 11.4105 28.323L11.3445 27.4945C11.3141 27.1065 11.0655 26.7605 10.7016 26.6137L9.94137 26.2991C8.15656 25.5545 7.45501 23.3943 8.46381 21.7479L8.89271 21.0453C9.0993 20.7097 9.0993 20.2903 8.89271 19.9547L8.46381 19.2521C7.45501 17.6057 8.15656 15.4455 9.94137 14.7009L10.7016 14.3863C11.0655 14.2395 11.3141 13.8935 11.3445 13.5055L11.4105 12.677C11.5636 10.758 13.3998 9.41569 15.278 9.86661L16.0792 10.0659C16.463 10.1497 16.8646 10.0239 17.1205 9.7198L17.6553 9.10109ZM20.8432 10.4643C20.4248 9.97148 19.6677 9.97148 19.2493 10.4643L18.7134 11.0831C17.9468 11.9849 16.7398 12.3729 15.5905 12.1003L14.7904 11.9115C14.1643 11.7647 13.5519 12.2051 13.5005 12.8448L13.4355 13.6628C13.3422 14.8477 12.5966 15.8754 11.5049 16.3263L10.7446 16.6409C10.1501 16.8821 9.9162 17.6057 10.2528 18.151L10.6817 18.8536C11.2983 19.8708 11.2983 21.1292 10.6817 22.1464L10.2528 22.849C9.9162 23.3943 10.1501 24.1179 10.7446 24.3591L11.5049 24.6737C12.5966 25.1246 13.3422 26.1523 13.4355 27.3372L13.5005 28.1552C13.5519 28.7949 14.1643 29.2353 14.7904 29.0885L15.5905 28.8997C16.7398 28.6271 17.9468 29.0151 18.7134 29.9169L19.2493 30.5357C19.6677 31.0285 20.4248 31.0285 20.8432 30.5357L21.3791 29.9169C22.1467 29.0151 23.3527 28.6271 24.502 28.8997L25.3021 29.0885C25.9282 29.2353 26.5406 28.7949 26.592 28.1552L26.657 27.3372C26.7503 26.1523 27.4959 25.1246 28.5876 24.6737L29.3478 24.3591C29.9424 24.1179 30.1763 23.3943 29.8397 22.849L29.4108 22.1464C28.7941 21.1292 28.7941 19.8708 29.4108 18.8536L29.8397 18.151C30.1763 17.6057 29.9424 16.8821 29.3478 16.6409L28.5876 16.3263C27.4959 15.8754 26.7503 14.8477 26.657 13.6628L26.592 12.8448C26.5406 12.2051 25.9282 11.7647 25.3021 11.9115L24.502 12.1003C23.3527 12.3729 22.1467 11.9849 21.3791 11.0831L20.8432 10.4643ZM18.6903 16.6095C19.1003 17.0185 19.1003 17.6896 18.6903 18.0986L17.6417 19.1472C17.2316 19.5562 16.5689 19.5562 16.1589 19.1472C15.7488 18.7383 15.7488 18.0671 16.1589 17.6581L17.2075 16.6095C17.6175 16.2005 18.2803 16.2005 18.6903 16.6095ZM23.9336 16.6095C24.3436 17.0185 24.3436 17.6896 23.9336 18.0986L17.6417 24.3905C17.2316 24.7995 16.5689 24.7995 16.1589 24.3905C15.7488 23.9815 15.7488 23.3104 16.1589 22.9014L22.4508 16.6095C22.8608 16.2005 23.5236 16.2005 23.9336 16.6095ZM23.9336 21.8528C24.3436 22.2617 24.3436 22.9329 23.9336 23.3419L22.885 24.3905C22.4749 24.7995 21.8122 24.7995 21.4022 24.3905C20.9921 23.9815 20.9921 23.3104 21.4022 22.9014L22.4508 21.8528C22.8608 21.4438 23.5236 21.4438 23.9336 21.8528Z" fill="#EFEEEE"/>
</svg>
