<svg width="50" height="50" viewBox="0 0 50 50" fill="none" xmlns="http://www.w3.org/2000/svg">
<rect width="50" height="50" fill="black" fill-opacity="0.05"/>
<path d="M25.4245 41.3745C28.6754 41.3745 31.3108 38.7391 31.3108 35.4882H19.5383C19.5383 38.7391 22.1736 41.3745 25.4245 41.3745Z" stroke="black" stroke-width="1.77508"/>
<path d="M19.5383 35.488V29.6018H31.3108V35.488H19.5383Z" stroke="black" stroke-width="1.77508"/>
<path d="M28.3676 11.943V29.6018H31.3108L35.7255 13.4145C36.3759 11.1395 34.3922 8.77028 31.3108 10.4714L28.3676 11.943Z" stroke="black" stroke-width="1.77508"/>
<path d="M22.4814 11.943V29.6018H19.5382L15.1235 13.4145C14.4731 11.1395 16.4568 8.77028 19.5382 10.4714L22.4814 11.943Z" stroke="black" stroke-width="1.77508"/>
<path d="M28.3677 11.943V29.6018H22.4814V11.943C22.4814 10.3175 23.7991 8.99984 25.4245 8.99984C27.05 8.99984 28.3677 10.3175 28.3677 11.943Z" stroke="black" stroke-width="1.77508"/>
</svg>
