<svg width="50" height="50" viewBox="0 0 50 50" fill="none" xmlns="http://www.w3.org/2000/svg">
<rect width="50" height="50" fill="black" fill-opacity="0.05"/>
<path d="M25 40C33.2843 40 40 33.2843 40 25C40 16.7157 33.2843 10 25 10C16.7157 10 10 16.7157 10 25C10.0101 33.2801 16.7199 39.9899 25 40Z" fill="black" stroke="black" stroke-opacity="0.05" stroke-width="3"/>
<path d="M36.6681 24.8759C36.7028 28.1992 35.3123 31.3781 32.8483 33.6084C31.1189 31.0647 30.1615 28.0753 30.0917 25.0001C30.232 21.9106 31.1153 18.9005 32.6667 16.2251C35.1767 18.4034 36.6334 21.5526 36.6681 24.8759Z" fill="#EFEFEF"/>
<path d="M30.8617 14.4083C28.9696 17.6289 27.9035 21.2675 27.7583 24.9999C27.8292 28.7432 28.9873 32.385 31.0917 35.4816C27.962 37.0222 22.303 37.0626 19.14 35.5916C21.0315 32.3708 22.097 28.7322 22.2417 24.9999C22.1708 21.2567 21.0126 17.6148 18.9083 14.5183C20.493 13.7401 23.2346 13.3347 25 13.3333C26.6793 13.3347 29.3383 13.7015 30.8617 14.4083Z" fill="#EFEFEF"/>
<path d="M19.9083 24.9999C19.768 28.0894 18.8847 31.0995 17.3333 33.7749C14.8233 31.5966 13.3667 28.4474 13.3319 25.1241C13.2972 21.8009 14.6877 18.6219 17.1517 16.3916C18.8822 18.9355 19.839 21.9249 19.9083 24.9999Z" fill="#EFEFEF"/>
</svg>
