<svg width="50" height="50" viewBox="0 0 50 50" fill="none" xmlns="http://www.w3.org/2000/svg">
<rect width="50" height="50" fill="black" fill-opacity="0.05"/>
<path fill-rule="evenodd" clip-rule="evenodd" d="M39 25.8149C39.0097 20.4257 36.0866 15.458 31.3708 12.8494C26.655 10.2408 20.8935 10.4044 16.3333 13.2764L16.2281 13.2467L16.1993 13.3586C10.2224 17.1914 7.80749 24.7273 10.4433 31.3202C13.0792 37.913 20.0238 41.7069 26.9956 40.3629C33.9675 39.0188 39.004 32.9151 39 25.8149ZM37.5185 25.8149C37.5201 27.6044 37.1595 29.3758 36.4585 31.0223C33.803 27.9852 32.2889 25.1852 31.9911 22.7771C33.9476 23.401 35.8034 24.305 37.5007 25.4608C37.5021 25.5135 37.5057 25.5657 37.5094 25.6179C37.5139 25.6832 37.5185 25.7486 37.5185 25.8149ZM37.3156 23.5778C36.9165 21.222 35.889 19.0176 34.3415 17.1971C33.1204 18.0733 32.2879 19.3901 32.02 20.869C32.0031 20.9632 31.9931 21.0593 31.9831 21.1551L31.9748 21.2334C33.8485 21.7819 35.6436 22.5699 37.3156 23.5778ZM33.3126 16.1215C31.8725 17.215 30.8926 18.8069 30.5652 20.5852C30.5557 20.6397 30.5493 20.6949 30.5429 20.7499L30.5429 20.7501L30.5428 20.7502C30.5387 20.7857 30.5346 20.8212 30.5296 20.8564C29.4072 20.6017 28.2688 20.4238 27.1222 20.3238C26.9573 17.6522 26.3638 15.0246 25.3644 12.5415C28.3413 12.8062 31.1417 14.0675 33.3126 16.1215ZM25.6474 20.2349C25.4747 17.5655 24.8291 14.948 23.7407 12.5045C21.7572 12.5679 19.8133 13.077 18.0533 13.9941C19.9415 14.8784 21.3487 16.5441 21.9052 18.5534C22.036 19.1364 22.0858 19.7346 22.0533 20.3312C23.2484 20.2278 24.4485 20.1956 25.6474 20.2349ZM16.5281 14.9171C17.6704 15.3756 19.9074 16.5512 20.4541 18.8882C20.5723 19.4136 20.6061 19.9544 20.5541 20.4904C17.3184 20.9302 14.1541 21.7908 11.1415 23.0504C11.8471 19.757 13.7711 16.8519 16.5281 14.9171ZM10.9044 24.7727C10.8778 25.1171 10.8518 25.463 10.8518 25.8149C10.8491 28.0175 11.3954 30.1861 12.4415 32.1245C17.3556 27.7156 19.497 24.4193 20.2378 22.0208C17.0151 22.5054 13.8745 23.4314 10.9044 24.7727ZM13.2378 33.406C18.1718 29.0149 21.0556 25.1341 21.8415 21.8223C23.1236 21.6975 24.4127 21.6594 25.7 21.7082C25.7415 26.3667 24.4148 32.2475 19.4889 38.2778C16.9613 37.322 14.782 35.6236 13.2378 33.406ZM21.0089 38.7497C22.0477 39.0104 23.1142 39.1442 24.1852 39.1482C28.9597 39.1424 33.3666 36.584 35.7393 32.4408C32.3822 28.7275 30.6126 25.346 30.4644 22.3571C29.3805 22.0959 28.2795 21.9112 27.1696 21.8045C27.1978 26.6141 25.8511 32.609 21.0089 38.7497Z" fill="black"/>
</svg>
