<svg width="50" height="50" viewBox="0 0 50 50" fill="none" xmlns="http://www.w3.org/2000/svg">
<rect width="50" height="50" fill="black" fill-opacity="0.05"/>
<path d="M8.56624 30.4466L11.8996 36.2201C14.1896 40.1865 22.7154 37.6736 29.6667 33.6603C36.618 29.6469 43.0571 23.5198 40.7671 19.5534L37.4338 13.7799C35.1438 9.81354 26.618 12.3264 19.6667 16.3398C12.7154 20.3531 6.27624 26.4802 8.56624 30.4466Z" fill="black" stroke="black" stroke-opacity="0.05" stroke-width="4"/>
<path d="M38 22C36 25 33 28 28 30.7735C23 33.547 15.743 35.4783 15.1515 34.4539L12.453 30.512C17.327 30.5244 21.8457 29.2537 25.6985 26.7872C29.761 24.6838 33.1207 21.4059 35.547 17.1786L38 22Z" fill="#EFEFEF"/>
<path d="M34.6303 15.5908C35.0801 16.3698 32.4096 20.9144 24.8333 25.2886C17.257 29.6627 11.9861 29.7031 11.5363 28.9242C11.0866 28.1452 13.757 23.6006 21.3333 19.2264C28.9096 14.8522 34.1806 14.8118 34.6303 15.5908Z" fill="#EFEFEF"/>
</svg>
